<?xml version="1.0" standalone="no"?>
<!DOCTYPE svg PUBLIC "-//W3C//DTD SVG 1.1//EN" "http://www.w3.org/Graphics/SVG/1.1/DTD/svg11.dtd" >
<svg xmlns="http://www.w3.org/2000/svg">
<metadata>Generated by IcoMoon</metadata>
<defs>
<font id="wedunn" horiz-adv-x="1024">
<font-face units-per-em="1024" ascent="960" descent="-64" />
<missing-glyph horiz-adv-x="1024" />
<glyph unicode="&#x20;" horiz-adv-x="512" d="" />
<glyph unicode="&#xe900;" glyph-name="call" d="M838.954 323.194v0c-47.75 0-94.592 7.32-139.45 21.51-21.060 7.32-44.555 1.52-59.955-14.795l-79.945-80.407c-102.835 55.225-188.58 140.97-243.805 243.805l80.705 80.705c14.795 15.415 20.44 37.84 14.644 58.435l-0.31 1.070c-15.865 45.765-23.805 93.22-23.495 141.125 0 32.496-26.55 59.040-59.195 59.35l-143.11-0.155c-32.496-0.155-59.040-26.705-59.040-59.040 0-96.12 18.765-189.495 55.845-277.365 35.7-84.83 87.114-161.115 152.415-226.56s141.587-116.87 226.264-152.725c87.885-37.224 181.103-56.14 277.215-56.14h1.225c32.35 0.155 58.743 26.705 59.040 59.195v143.11c-0.155 32.195-26.705 58.59-59.040 58.888zM861.379 121.199c-0.155-12.36-10.22-22.58-22.58-22.58h-1.070c-180.485 0-350.145 70.485-477.691 198.183-127.4 127.695-197.575 297.355-197.42 477.84 0 12.36 10.22 22.425 22.58 22.58h142.955c12.515-0.155 22.58-10.22 22.58-22.58-0.31-51.72 8.235-102.988 25.325-152.57 2.14-7.937-0.155-16.625-5.8-22.58l-99.175-99.175 5.955-11.895c30.21-59.505 69.57-113.66 116.715-160.96 47.3-47.3 101.455-86.505 160.96-116.715l11.895-5.955 99.625 99.935c5.49 5.955 14.035 8.082 21.51 5.49l0.605-0.155c48.514-15.56 99.175-23.34 150.585-23.34 12.36-0.155 22.425-10.22 22.58-22.425v-143.11z" />
<glyph unicode="&#xe901;" glyph-name="call_f" d="M859.195 296.083c-52.32 0-104.175 7.955-154.045 23.865-15.299 5.35-32.428 1.070-43.45-10.858l-95.46-95.46c-123.45 62.725-223.655 162.919-286.38 286.38l95.46 95.46c11.010 11.475 15.15 27.99 10.858 43.295-17.445 50.18-26.16 103.105-26.005 156.185 0 23.865-19.43 43.295-43.295 43.45h-151.905c-23.865-0.155-43.14-19.585-43.295-43.45-0.31-406.919 329.365-737.051 736.28-737.35 0.31 0 0.76 0 1.070 0 23.865 0.155 43.295 19.43 43.295 43.295v151.75c0 24.020-19.275 43.295-43.14 43.45z" />
<glyph unicode="&#xe902;" glyph-name="user" d="M879.315 132.641c0 16.546 0 33.103 0 45.674l-0.167 0.501c0.167 20.688-5.3 41.042-15.388 58.913-17.214 27.97-41.209 51.141-69.836 67.193-56.107 31.611-116.843 54.114-180.057 66.529-3.14 0.66-6.291 1.158-9.598 1.158-14.063 0-26.812-8.273-32.435-21.022-12.415-23.828-27.97-45.841-46.509-65.204-4.3-4.632-8.607-9.431-13.072-14.063-23.828 22.837-44.026 49.482-59.581 78.61-5.957 13.239-19.196 21.846-33.76 21.679-3.307 0-6.458-0.334-9.598-1.158-55.439-11.581-109.23-30.286-160.037-55.606-26.812-13.406-51.141-31.611-71.495-53.457-18.863-19.53-30.286-45.184-32.268-72.319-1.325-23.338-1.325-46.509 0-69.836 1.492-40.051 29.295-74.474 68.188-84.4 19.697-5.957 40.051-9.102 60.739-9.431 75.793 0 152.922-0.501 236.164-0.501 75.635 0 154.247 0 240.629 0.334 17.704 0.167 35.252 2.483 52.299 7.115 46.342 9.932 78.443 51.965 75.793 99.298zM787.794 92.432c-12.081-3.307-24.496-4.966-36.907-5.133-86.226 0-165.003-0.334-240.465-0.334-83.075 0-160.204 0-235.83 0.501-14.731 0.167-29.295 2.483-43.358 6.781-14.564 2.65-24.986 15.222-24.986 29.952-1.158 21.022-1.158 42.033 0 63.055 1.492 13.239 7.616 25.654 17.214 34.918 15.555 16.546 33.927 30.119 54.448 40.051 41.042 20.688 84.4 36.243 129.083 46.342 22.345-36.744 50.15-69.836 82.585-98.307 2.65-2.316 5.623-4.3 8.774-5.79l1.659-0.824 20.187-10.589 15.722 16.546 10.262 10.589c7.941 8.273 16.223 16.713 24.329 25.32 17.871 19.196 33.593 40.218 47.166 62.554 50.807-10.923 99.799-29.626 144.972-55.439 20.023-10.589 36.744-26.144 48.825-45.349 4.966-8.941 7.616-18.863 7.449-29.128-0.334-12.582-0.334-28.304-0.334-44.516 2.817-19.864-10.923-38.226-30.787-41.209zM405.996 451.221c28.465-25.986 65.371-40.548 103.93-41.042 17.871 0.167 35.747 3.14 52.631 8.941 42.701 15.064 77.953 45.841 98.639 86.059 28.794 54.782 43.859 115.844 43.859 177.741v4.3c0 2.817-0.501 5.957-0.824 9.264-0.66 8.774-1.659 19.53-3.474 30.453-8.273 62.392-52.466 114.196-112.871 132.067-23.995 7.616-48.99 11.257-74.145 11.090-12.081 0-23.995-0.66-36.076-2.149-28.627-2.817-56.271-11.914-80.926-26.812-48.658-31.11-77.786-85.235-77.118-142.99-1.982-42.2 3.14-84.235 15.064-124.785 10.756-46.832 35.586-89.533 71.328-122.135zM380.175 694.508c-1.659 38.068 16.88 74.312 48.825 95.157 17.047 10.099 36.076 16.223 55.773 18.038 9.598 1.158 19.196 1.82 28.961 1.82 18.863 0.167 37.568-2.65 55.606-8.273 39.060-10.756 67.52-44.189 71.662-84.567 1.325-8.106 2.149-17.047 2.817-24.825 0-2.817 0.501-5.461 0.66-8.106 0-51.631-12.415-102.605-36.076-148.447-13.406-26.979-36.577-47.829-64.871-58.256-10.756-3.641-22.013-5.623-33.426-5.79-23.995 0.501-46.999 9.932-64.38 26.311-26.478 24.663-44.683 56.931-52.299 92.35-10.099 33.927-14.564 69.513-13.072 104.921l-0.167-0.334z" />
<glyph unicode="&#xe903;" glyph-name="user_1" d="M510.562 794.8c-0.152 0-0.152 0-0.302 0-91.158-0.152-165.534-74.534-165.692-165.692 0-91.618 74.534-166.296 166.296-166.296v0c91.46 0.152 165.836 74.678 165.692 166.296-0.152 91.316-74.534 165.692-165.994 165.692zM510.864 744.913c63.792 0 115.806-52 115.806-115.806s-52-115.806-115.806-115.806-115.806 52-115.806 115.806c0.152 63.648 52.158 115.504 115.806 115.806zM154.544 101.659h714.768c14.812-0.152 27.064 11.792 27.208 26.762 0 0.152 0 0.302 0 0.455-0.152 142.556-115.504 258.058-258.058 258.36h-252.766c-142.556-0.302-258.058-115.806-258.214-258.36-0.152-14.812 11.792-27.064 26.762-27.208 0.152 0 0.152 0 0.302 0zM385.841 332.955h252.622c102.198 0 188.514-75.584 202.119-176.88h-656.714c13.762 100.984 99.93 176.42 201.974 176.88v0zM869.614 101.2c-0.152 0-0.152 0-0.302 0h-715.070c-7.406 0-14.208 3.020-19.356 8.168-5.137 5.292-7.866 12.094-7.866 19.356 0 69.084 27.064 133.94 75.742 182.776 48.834 48.834 113.685 75.742 182.776 75.886h252.924c69.084-0.152 133.94-27.064 182.776-75.886s75.584-113.685 75.742-182.776v-0.455c0-7.406-3.020-14.208-8.168-19.356-5.292-4.834-12.094-7.708-19.198-7.708zM385.696 386.925c-141.95-0.302-257.756-116.108-257.756-258.058 0-7.104 2.574-13.762 7.564-18.896s11.639-7.866 18.749-8.010h715.070c0.152 0 0.152 0 0.302 0 6.958 0 13.604 2.718 18.594 7.564 5.137 4.99 7.866 11.639 8.010 18.749v0.455c-0.302 142.108-115.806 257.911-257.756 258.214h-252.766zM841.040 155.629l-657.62 0.455c6.654 48.98 30.844 93.876 68.034 126.387s84.96 50.648 134.4 50.792h252.622c49.584 0 97.356-17.99 134.544-50.49 37.188-32.658 61.376-77.554 68.034-126.69v-0.455zM184.326 156.384h655.808c-13.762 100.534-100.377 176.118-201.672 176.118h-252.622c-101.138-0.302-187.766-76.044-201.514-176.118z" />
<glyph unicode="&#xe904;" glyph-name="user_f" d="M879.316 132.641c0 16.546 0 33.103 0 45.674l-0.167 0.501c0.167 20.688-5.3 41.042-15.388 58.913-17.214 27.97-41.209 51.141-69.836 67.193-56.107 31.611-116.843 54.114-180.057 66.529-3.14 0.66-6.291 1.158-9.598 1.158-14.063 0-26.812-8.273-32.435-21.022-12.415-23.828-27.97-45.841-46.509-65.204-4.3-4.632-8.607-9.431-13.072-14.063-23.828 22.837-44.026 49.482-59.581 78.61-5.957 13.239-19.196 21.846-33.76 21.679-3.307 0-6.458-0.334-9.598-1.158-55.439-11.581-109.23-30.286-160.037-55.606-26.812-13.406-51.141-31.611-71.495-53.457-18.863-19.53-30.286-45.184-32.268-72.319-1.325-23.338-1.325-46.509 0-69.836 1.492-40.051 29.295-74.474 68.188-84.4 19.697-5.957 40.051-9.102 60.739-9.431 75.793 0 152.922-0.501 236.164-0.501 75.635 0 154.247 0 240.629 0.334 17.704 0.167 35.252 2.483 52.299 7.115 46.342 9.932 78.443 51.965 75.793 99.298zM405.997 451.221c28.465-25.986 65.371-40.548 103.93-41.042 17.871 0.167 35.747 3.14 52.631 8.941 42.701 15.064 77.953 45.841 98.639 86.059 28.794 54.782 43.859 115.844 43.859 177.741v4.3c0 2.817-0.501 5.957-0.824 9.264-0.66 8.774-1.659 19.53-3.474 30.453-8.273 62.392-52.466 114.196-112.871 132.067-23.995 7.616-48.99 11.257-74.145 11.090-12.081 0-23.995-0.66-36.076-2.149-28.627-2.817-56.271-11.914-80.926-26.812-48.658-31.11-77.786-85.235-77.118-142.99-1.982-42.2 3.14-84.235 15.064-124.785 10.756-46.832 35.586-89.533 71.328-122.135z" />
<glyph unicode="&#xe905;" glyph-name="user_2" d="M512 36.4c-109.855 0-213.192 42.781-291.008 120.592s-120.592 181.153-120.592 291.008c0 109.855 42.781 213.192 120.592 291.008s181.153 120.592 291.008 120.592c109.855 0 213.192-42.781 291.008-120.592s120.592-181.153 120.592-291.008c0-109.855-42.781-213.192-120.592-291.008s-181.153-120.592-291.008-120.592zM512 817.347c-203.687 0-369.347-165.66-369.347-369.347s165.66-369.347 369.347-369.347c203.687 0 369.347 165.66 369.347 369.347s-165.66 369.347-369.347 369.347zM513.421 389.223c-92.070-0.53-167.071 73.59-167.598 165.66s73.59 167.071 165.66 167.598c92.070 0.53 167.071-73.59 167.598-165.66 0-0.351 0-0.702 0-0.881 0.351-91.719-73.941-166.364-165.66-166.72zM513.421 684.284c-70.947 0.53-128.865-56.686-129.395-127.633s56.686-128.865 127.633-129.395 128.865 56.686 129.395 127.633c0 0.351 0 0.53 0 0.881 0.179 70.769-56.865 128.342-127.633 128.514zM695.231 228.318c-10.565 0-19.011 8.452-19.011 19.011v116.194c0 35.914-19.011 60.382-60.21 76.756-9.856 3.875-14.612 14.963-10.565 24.825 3.875 9.856 14.963 14.612 24.825 10.565 69.536-27.813 84.148-76.405 84.148-112.14v-116.194c0-10.565-8.624-19.011-19.189-19.011 0 0 0 0 0 0zM332.395 226.556c-10.565 0-19.011 8.452-19.011 19.011v116.194c0 35.735 14.082 84.148 81.684 112.14 9.684 4.047 20.951-0.53 24.998-10.386 4.047-9.684-0.53-20.951-10.386-24.998-39.080-16.195-58.097-41.372-58.097-76.756v-116.194c-0.179-10.565-8.624-19.011-19.189-19.011 0 0 0 0 0 0zM514.743 176.479c-4.399 0-8.624 1.411-11.969 4.226l-51.407 41.193c-5.634 4.399-8.273 11.797-6.869 18.659l32.748 159.149c1.762 8.803 9.684 15.314 18.659 15.314h37.146c8.978 0 16.901-6.339 18.659-15.314l33.099-159.149c1.411-7.041-1.232-14.261-6.69-18.838l-51.407-41.193c-3.345-2.643-7.743-4.047-11.969-4.047zM484.287 244.439l30.456-24.296 30.456 24.296-27.641 132.389h-6.16l-27.111-132.389z" />
<glyph unicode="&#xe906;" glyph-name="add_user" d="M837.54 653.26v-22.076h11.676c-3.65 7.48-7.48 14.78-11.676 22.076zM837.54 593.228v-41.235c0-2.555-0.365-4.925-1.095-7.115 8.21-30.835 12.77-63.312 12.77-96.7 0-205.995-167.676-373.67-373.67-373.67s-373.67 167.495-373.67 373.492c0 205.995 167.676 373.67 373.67 373.67 138.485 0 259.456-75.72 324.040-187.93v38.5c0.365 8.575 6.385 15.69 14.23 17.88-13.135 18.43-27.915 35.76-44.155 52-78.64 78.64-183.005 121.88-294.12 121.88s-215.665-43.24-294.12-121.88-121.88-183.005-121.88-294.12c0-111.115 43.24-215.665 121.88-294.12 78.455-78.64 183.005-121.88 294.12-121.88s215.665 43.24 294.12 121.88c78.64 78.64 121.88 183.005 121.88 294.12 0 50.36-8.94 99.255-25.91 145.235h-28.1zM829.069 469.236c14.050 0.73 27.55 3.65 40.328 8.395-12.77-4.745-26.275-7.48-40.328-8.395zM819.944 757.701c-79.735 0-144.505-64.59-144.505-144.505s64.59-144.505 144.505-144.505c3.1 0 6.020 0.184 9.128 0.365 14.050 0.912 27.55 3.65 40.328 8.395 55.465 20.070 95.060 73.348 95.060 135.748 0 79.915-64.59 144.505-144.505 144.505zM837.459 593.126v-41.235c0.365-10.4-7.845-19.34-18.43-19.528-10.4-0.365-19.34 7.845-19.528 18.43 0 0.365 0 0.73 0 1.276v41.235h-41.235c-10.4-0.365-19.34 7.845-19.528 18.43-0.365 10.4 7.845 19.34 18.43 19.528 0.365 0 0.73 0 1.276 0h41.235v41.235c0.365 10.4 9.128 18.795 19.528 18.43 10.035-0.365 18.065-8.395 18.43-18.43v-41.235h41.235c10.4-0.365 18.795-9.128 18.43-19.528-0.365-10.035-8.395-18.065-18.43-18.43v0h-41.42zM470.62 387.233l-33.57-174.975 41.42-33.025 41.235 33.025-33.935 174.975h-15.145zM610.38 443.613c-24.815-24.63-56.015-41.784-90.135-49.81l36.125-185.010c1.276-6.57-1.095-13.135-6.205-17.335l-15.51-12.405c47.985 5.84 94.876 18.245 139.215 37.040v137.205c0 40.87-20.984 70.43-63.495 90.315zM435.77 393.256c-34.85 7.845-66.78 25.18-92.14 50.36-37.040-14.415-61.305-50.36-60.76-90.135v-137.935c44.335-19.705 91.775-32.295 140.125-37.040l-16.42 13.135c-5.11 4.195-7.665 10.765-6.205 17.335l35.395 184.28zM477.005 423.908c86.485-0.73 156.912 68.97 157.64 155.27s-68.97 157.095-155.27 157.64-156.912-68.97-157.64-155.27c0-0.365 0-0.73 0-1.095-0.184-86.12 69.15-156.184 155.27-156.548z" />
<glyph unicode="&#xe907;" glyph-name="support" d="M854.379 592.702c-18.737 44.216-45.531 84.030-79.645 118.152s-73.787 60.901-118.152 79.645c-45.821 19.179-94.428 28.992-144.645 28.992s-98.824-9.813-144.645-29.139c-44.216-18.737-84.030-45.531-118.152-79.645s-60.901-73.787-79.645-118.152c-19.179-45.672-28.992-94.428-28.992-144.496v-238.488c0-14.79 12.004-26.791 26.94-26.791h158.992c14.79 0 26.94 12.004 26.94 26.791v211.846c0 14.79-12.004 26.94-26.94 26.94h-132.35c-2.052 175.093 138.638 319.159 313.888 321.36 1.323 0 2.631 0 4.104 0 173.339 0 315.502-139.962 317.696-313.888v-7.463h-132.201c-14.79 0-26.791-12.004-26.791-26.94v-212.144c0-14.79 12.004-26.94 26.791-26.94h132.201v-52.264h-290.902v26.063c0.58 14.929-10.982 27.519-25.616 28.115-0.441 0-0.728 0-1.175 0-14.347 0-26.353-11.269-26.94-25.765v-55.19c0-14.79 12.004-26.791 26.791-26.791h344.775c14.79 0 26.791 12.004 26.791 26.791v344.775c0 50.074-9.813 98.824-29.139 144.645zM724.376 236.509v158.264h105.261v-158.264h-105.261zM299.512 394.773v-158.264h-105.41v158.264h105.41z" />
<glyph unicode="&#xe908;" glyph-name="checkbox" d="M721.712-63.997h-419.424c-152.156 0-276.128 123.77-276.128 276.128v471.741c0 152.352 123.77 276.128 276.128 276.128h419.424c152.352 0 276.128-123.77 276.128-276.128v-471.946c0-152.156-123.975-275.926-276.128-275.926zM302.292 932.212c-136.861 0-248.154-111.293-248.154-248.154v-471.946c0-136.861 111.293-248.154 248.154-248.154h419.424c136.861 0 248.154 111.293 248.154 248.154v471.741c0 136.861-111.293 248.154-248.154 248.154h-419.424z" />
<glyph unicode="&#xe909;" glyph-name="notification_1" d="M510.581-30.028c-62.048 1.876-117.164 39.74-141.159 96.916-13.684 0-27.368 0-40.68 0-14.436 0-29.62 0-44.24 0-20.62 0-37.492 0-53.24-0.748-35.616-0.188-68.612 18.372-86.796 48.928-18.372 27.932-20.996 63.548-6.748 93.732 4.688 9.748 9 19.684 13.496 30.368 2.436 5.624 4.874 11.248 7.312 16.872 11.060 25.12 16.684 52.488 16.496 79.86 0 22.12 0 44.24 0 66.36 0 32.244 0 64.674 0 96.916 0.376 75.36 26.056 148.28 72.924 207.332 42.18 53.052 99.168 92.42 163.652 113.040-2.812 34.492 13.308 67.672 42.18 86.608 16.872 12.748 37.304 19.872 58.488 20.244 20.244-0.188 39.74-6.748 56.24-18.56 29.992-18.747 46.864-52.676 44.052-87.92 13.496-4.312 26.62-9.56 39.368-15.56 104.416-46.492 177.524-143.22 193.836-256.26 3-21.184 4.124-42.552 3.56-63.924 0-5.248 0-10.496 0-15.748 0.188-28.68 0-58.112 0-86.044 0-15.748 0-31.492 0-47.24 0-27.556 5.624-54.74 16.684-79.86 2.248-5.248 4.312-10.124 6.56-15.184 4.5-10.496 8.624-20.62 13.308-29.992 14.436-30.368 11.996-66.172-6.372-94.292-17.808-29.808-49.676-48.364-84.356-49.304h-2.436c-16.684 0.564-34.868 0.748-57.176 0.748h-38.616c-14.060 0-28.308 0-42.18 0-20.62-51.552-67.672-88.108-122.788-95.416-7.124-1.124-14.060-1.688-21.372-1.876v0zM383.109 134.752c9.184 0.376 18.372-2.063 26.432-6.748 10.872-7.312 18.372-18.56 21.184-31.305 0.376-1.124 0.748-2.436 0.936-3 13.308-32.62 44.24-54.552 79.484-56.424 3.56 0 7.124 0.376 10.496 0.936 35.616 4.312 65.048 29.62 74.796 64.3 5.624 19.684 23.996 32.992 44.428 32.056h0.564c18.372 0 36.928 0 55.488 0h38.616c23.056 0 42.18 0 59.424-0.936h0.748c11.436 0.936 21.558 7.5 27.18 17.432 5.812 8.436 7.124 19.308 3.188 28.868-5.624 11.248-10.496 22.684-14.996 33.556-2.063 4.874-4.124 9.56-6.188 14.436-14.996 33.744-22.684 70.296-22.684 107.416 0 15.748 0 31.68 0 47.428 0 27.932 0 56.988 0 85.296 0 5.248 0 11.060 0 16.496 0.564 17.62-0.188 35.244-2.624 52.676-12.56 91.48-71.984 169.84-156.716 206.58-12.56 5.812-25.684 10.684-38.804 14.808-6.748 2.248-13.872 4.688-21.184 7.312l-29.62 10.872 9 30.368c7.684 26.056 2.248 35.432-12.372 45.74-5.060 3.748-11.060 6-17.248 6.188-6.936-0.188-13.496-2.624-18.747-6.936-11.624-8.436-19.872-17.248-10.496-45.928l10.496-32.992-33.368-9.372-2.812-0.936c-2.248-0.564-4.5-1.312-7.124-1.876-121.1-28.868-206.768-136.66-207.52-261.132 0-32.244 0-64.488 0-96.728 0-22.12 0-44.24 0-66.36 0.188-36.744-7.5-73.296-22.308-107.040-2.436-5.248-4.688-10.496-6.936-16.12-4.688-10.872-9.372-22.12-14.808-33.368-3.748-9.56-2.436-20.244 3.376-28.68 5.436-9.936 15.56-16.308 26.808-17.432h0.748c16.496 0.564 34.116 0.748 55.488 0.748 14.996 0 30.18 0 44.804 0 13.496 0 27.368 0 41.053 0h3.748c2.624 0 5.624 0.376 9 0.376l-0.936-0.564zM510.581-30.4v0c-30.556 0.936-59.988 10.496-84.92 27.744-25.12 17.248-44.616 41.053-56.424 69.172h-84.732c-20.996 0-37.492 0-53.24-0.748-0.188 0-0.376 0-0.564 0-35.432 0-68.424 18.747-86.608 49.116-18.372 27.932-20.996 63.924-6.748 93.916 5.060 10.496 9.56 21.184 13.496 30.368l7.312 16.872c10.872 24.932 16.684 52.488 16.496 79.672v163.28c0.188 37.492 6.56 74.422 19.12 109.852 12.372 35.432 30.556 68.236 53.988 97.668 42.368 53.24 98.98 92.42 163.652 113.040-2.812 34.492 13.496 67.672 42.368 86.608 17.060 12.936 37.304 19.872 58.676 20.244 20.244-0.188 39.74-6.56 56.424-18.56 29.992-18.747 46.864-52.488 44.24-87.92 12.936-4.124 26.056-9.372 39.18-15.56 51.176-22.872 96.168-58.488 130.096-103.292 33.744-44.804 55.864-97.668 63.924-153.156 3-20.808 4.124-42.18 3.56-63.924v-15.748c0.188-19.12 0-38.992 0-57.924 0-9.56 0-18.932 0-28.12v-47.24c0-27.744 5.624-54.552 16.684-79.672l1.312-3.188c1.688-4.124 3.376-7.872 5.248-11.996 0.936-2.063 1.688-4.124 2.624-6.188 3.56-8.436 6.936-16.308 10.684-23.808 14.436-30.368 11.996-66.548-6.372-94.48-8.812-14.621-21.184-26.996-35.992-35.616s-31.492-13.308-48.552-13.872h-2.436c-15.372 0.564-32.992 0.748-57.176 0.748h-80.608c-20.62-51.552-67.86-88.108-122.976-95.416-7.124-0.936-14.060-1.5-21.744-1.876v0zM284.505 67.264h85.108v-0.188c23.808-56.988 79.108-94.856 140.972-96.728 7.684 0.188 14.436 0.748 21.372 1.876 55.112 7.312 101.98 43.864 122.6 95.232v0.188h80.984c24.184 0 41.804-0.188 57.176-0.748h2.436c34.868 0.936 66.36 19.308 84.169 49.116 18.184 27.932 20.62 63.924 6.372 94.104-3.748 7.5-7.124 15.56-10.684 23.996-0.936 2.063-1.688 4.124-2.624 6.188-1.876 3.936-3.376 7.872-5.248 11.996l-1.312 3.188c-11.060 25.12-16.684 52.116-16.684 80.044v46.864c0 9.184 0 18.56 0 28.12 0 19.12 0 38.804 0 57.924v15.748c0.564 21.744-0.564 43.116-3.56 63.924-16.496 113.6-88.856 209.392-193.836 256.072-13.124 6.188-26.244 11.436-39.368 15.56h-0.188v0.188c2.812 35.432-14.060 68.984-43.864 87.732-16.684 11.811-35.992 18.372-56.052 18.372-21.184-0.376-41.24-7.312-58.3-20.244-28.68-18.932-44.804-51.928-41.992-86.42v-0.188h-0.188c-64.674-20.62-121.288-59.8-163.464-113.040-46.676-58.676-72.548-132.348-72.924-207.144v-163.28c0.188-27.368-5.436-54.927-16.496-80.044l-7.312-16.872c-3.936-9.184-8.436-19.872-13.496-30.368-14.060-29.808-11.436-65.612 6.748-93.544 17.996-30.18 50.8-48.74 86.044-48.74 0.188 0 0.376 0 0.564 0 15.56 1.124 32.056 1.124 53.052 1.124zM511.145 36.896c-17.432 0.936-33.932 6.748-48.176 16.684-14.060 10.124-25.12 23.808-31.68 39.928 0 0.188-0.188 0.564-0.376 1.124s-0.376 1.312-0.564 2.063c-2.812 12.936-10.312 23.996-20.996 31.12-8.248 4.688-17.248 7.124-26.244 6.748l-0.188 0.564c-1.312 0-2.812-0.188-3.936-0.188-1.312 0-2.624-0.188-3.936-0.188h-89.608c-23.244 0-40.304-0.188-55.488-0.748h-0.748c-11.624 1.124-21.744 7.684-26.996 17.62-5.812 8.436-7.124 19.308-3.376 28.868 4.5 9.184 8.436 18.56 12.372 27.556 0.748 1.876 1.688 3.936 2.436 5.812 2.248 5.812 4.5 11.060 6.936 16.12 14.808 33.556 22.496 70.672 22.308 106.852v163.092c0.188 30.556 5.436 60.736 15.748 89.42 9.936 27.932 24.369 53.988 42.928 77.232s40.492 43.304 65.612 59.236c25.684 16.496 53.8 28.495 83.42 35.432 1.688 0.376 3 0.748 4.5 1.124 0.936 0.188 1.688 0.564 2.624 0.748l2.812 0.936 33.18 9.372-10.496 32.804c-9.372 28.868-1.124 37.68 10.684 46.304 5.248 4.312 11.811 6.748 18.932 6.936 6.188-0.188 12.184-2.436 17.432-6.188 14.621-10.312 20.244-19.872 12.56-46.116l-9-30.18 29.432-10.872c6.56-2.436 13.496-4.688 21.184-7.312 14.060-4.5 27.18-9.372 38.804-14.808 41.616-17.996 78.172-46.676 105.54-82.856s45.179-78.92 51.364-123.912c2.248-16.684 3.188-34.304 2.624-52.676v-149.22c0-37.304 7.684-73.484 22.684-107.228 1.124-2.436 2.063-4.874 3.188-7.312 0.936-2.436 2.063-4.688 3-7.124 4.5-10.684 9.372-22.12 14.996-33.556 3.936-9.56 2.812-20.432-3.188-29.244-5.624-10.124-15.936-16.684-27.368-17.62h-0.748c-17.248 0.936-36.744 0.936-59.424 0.936h-94.668c-0.748 0-1.312 0-2.063 0-19.496 0-36.744-12.936-42.18-31.868-9.748-34.868-39.18-60.176-74.984-64.488-4.124-0.564-7.684-0.936-10.872-0.936zM384.981 135.128c8.436 0 17.060-2.248 24.744-6.748 10.872-7.312 18.372-18.56 21.372-31.492 0.188-0.564 0.376-1.312 0.564-1.876 0.188-0.376 0.188-0.748 0.376-0.936 13.124-32.244 44.24-54.364 79.296-56.24 3.188 0 6.748 0.376 10.496 0.936 35.616 4.312 64.86 29.432 74.608 64.112 5.248 18.932 22.684 32.056 42.368 32.056 0.748 0 1.312 0 2.063 0h94.668c22.684 0 42.18 0 59.424-0.936h0.748c11.248 0.936 21.372 7.312 26.996 17.248 5.812 8.436 7.124 19.12 3.188 28.68-5.624 11.248-10.496 22.872-14.996 33.556-0.936 2.436-2.063 4.874-3 7.124-1.124 2.436-2.063 4.874-3.188 7.312-14.996 33.932-22.684 70.112-22.684 107.604v149.22c0.564 18.372-0.376 35.992-2.624 52.676-12.56 90.732-72.548 169.84-156.528 206.396-11.624 5.436-24.744 10.312-38.804 14.808-7.684 2.624-14.621 4.874-21.184 7.312l-29.808 10.872 9 30.556c7.684 25.868 2.063 35.244-12.184 45.364-5.248 3.748-11.060 6-17.060 6.188-6.936-0.188-13.308-2.624-18.56-6.936-11.624-8.436-19.684-17.060-10.496-45.552l10.496-33.18-33.556-9.372-2.812-0.936c-0.936-0.188-1.688-0.564-2.624-0.748-1.5-0.376-2.812-0.748-4.5-1.124-121.288-28.868-206.58-136.096-207.332-260.944v-163.092c0.188-36.368-7.5-73.484-22.308-107.228-2.436-5.060-4.688-10.312-6.936-16.12-0.748-1.876-1.688-3.936-2.436-5.812-3.936-9-7.872-18.372-12.372-27.556-3.748-9.372-2.436-20.060 3.376-28.308 5.248-9.748 15.184-16.12 26.62-17.248h0.748c15.184 0.564 32.244 0.748 55.488 0.748h89.608c1.312 0 2.624 0 3.936 0.188 1.688 0.188 3.188 0.188 5.060 0.188h0.936l-0.936-0.564c0.188-0.188 0.564-0.188 0.748-0.188z" />
<glyph unicode="&#xe90a;" glyph-name="notification_f" d="M861.292 226.027c-4.2 8.744-8.048 17.664-12.243 27.288l-0.352 0.697c-0.697 1.752-1.576 3.496-2.272 5.248-1.224 2.8-2.448 5.773-3.848 8.744-10.32 23.616-15.568 48.624-15.568 74.512v44.080c0 8.568 0 17.488 0 26.24 0 17.664 0.176 36.032 0 54.048v14.696c0.528 19.94-0.528 39.88-3.32 59.648-7.52 51.776-28.16 101.272-59.648 142.904-31.485 41.804-73.464 75.040-121.392 96.376-11.896 5.6-24.136 10.32-36.56 14.344 2.624 33.056-13.296 64.544-41.28 82.032-15.392 11.192-33.584 17.144-52.472 17.318-19.94-0.352-38.832-6.824-54.744-18.888-26.936-17.664-42.152-48.624-39.528-80.808-60.344-19.416-113.168-55.8-152.52-105.472-21.688-27.464-38.656-58.072-50.376-91.128-11.544-33.056-17.664-67.516-17.84-102.496v-152.35c0.176-25.712-5.072-50.896-15.392-74.512-1.576-3.496-2.976-7-4.546-10.496-0.697-1.752-1.576-3.496-2.272-5.248-4.024-9.621-8.048-19.064-12.592-28.336-6.472-13.992-9.272-29.384-8.224-44.776s6.12-30.258 14.52-43.031c17.488-27.637 48.448-45.128 81.336-45.128 0.176 0 0.352 0 0.352 0 14.696 0.697 30.088 0.697 49.672 0.697h79.061c11.016-26.064 29.208-48.448 52.648-64.544s50.896-25.015 79.232-25.888v0l0.176 0.176c0 0 0 0 0 0 6.472 0 13.12 0.528 19.592 1.576 51.424 6.824 95.328 40.928 114.744 89.032h74.864c20.464 0 37.432-0.176 53.349-0.697h2.272c15.92 0.352 31.656 4.896 45.48 12.944s25.36 19.592 33.584 33.232c8.394 12.944 13.47 27.984 14.52 43.376 1.048 15.216-1.924 30.784-8.394 44.6z" />
<glyph unicode="&#xe90b;" glyph-name="home" d="M238.771 104.462h134.503c0 39.994-0.755 78.854 0.376 117.526-0.376 22.071 1.886 44.332 6.98 65.837 18.864 65.082 82.25 106.583 149.406 98.096 70.176-8.111 123.375-67.347 123.563-138.087 1.321-46.974 0.188-94.133 0.188-142.993h134.691v306.359c0 6.413 0 12.45 0 18.675 0 18.487 7.356 32.635 26.977 32.635 19.618-0.188 26.598-13.96 26.41-32.823-0.188-103.19-0.188-206.189 0-309.378 0.188-68.854 6.413-71.874-72.062-70.743-38.296 0.567-76.401 0-114.697 0-52.444 0-54.706 2.265-54.706 53.387 0 45.276 0.376 90.737 0 136.013 4.339 47.917-30.937 90.173-78.854 94.512s-90.173-30.937-94.512-78.854c-0.376-5.094-0.567-10.188 0-15.091-0.567-50.558 0-101.301-0.188-152.047-0.188-30.182-7.547-37.541-38.105-37.917-55.085-0.376-110.17-0.376-165.442 0-29.43 0.188-37.541 8.866-37.541 38.86-0.188 112.056 0 223.921-0.188 335.977 0 19.809 3.962 37.729 27.165 37.917s26.598-18.299 26.41-37.917c-0.376-96.019-0.188-192.041-0.188-288.060l-0.188-31.88zM514.569 787.544l-306.547-244.294c-40.37-32.071-80.74-64.327-120.922-96.398-15.279-12.262-31.88-20.373-46.595-2.265-15.279 18.675-2.265 32.259 12.829 44.332 144.503 115.073 289.003 230.525 433.506 345.974 13.772 14.903 37.162 15.846 52.065 2.074 0.567-0.567 1.131-1.131 1.698-1.698 144.124-115.828 289.193-230.713 432.939-346.917 10.752-9.245 16.789-22.638 16.789-36.786-2.453-20.752-24.9-23.393-46.219-6.604-72.441 57.347-144.691 115.073-216.941 172.799l-212.602 169.779z" />
<glyph unicode="&#xe90c;" glyph-name="send" d="M872.822 808.681l-10.888 15.52-725.688-339.496-0.447-35.81 251.6-125.8 125.648-251.296 35.81 0.447 339.344 725.536-15.368 10.888zM763.894 730.641l-364.704-364.856-200.56 100.424 565.265 264.432zM794.782 699.897l-264.584-565.416-100.281 200.712 364.856 364.704z" />
<glyph unicode="&#xe90d;" glyph-name="success" d="M877.473 445.336c13.37 32.625-2.057 70.246-34.385 84.055-13.37 6.91-27.485 12.050-42.031 15.435h-0.145c-51.725 10.435-104.486 13.075-156.945 7.791-3.677-0.145-7.5-0.145-10.73-0.145 0.436 9.703 0.885 19.255 1.475 28.651 1.475 27.035 2.935 52.61 1.32 78.473-1.766 24.83-8.373 48.79-19.55 71.12l-0.145 0.295c-13.075 22.626-34.094 38.945-59.365 45.854-25.125 6.91-51.585 3.677-74.505-8.96l-3.385-1.91 0.436-3.82c13.075-128.586-19.69-216.465-103.015-276.56l-2.5-1.766v-3.090c-13.96 13.37-33.65 19.55-52.905 16.31-41.29 0-82.587 0-123.885 0-26.305 3.968-50.84-13.96-54.955-40.265-0.73-4.845-0.73-9.703 0-14.398 0-87.735 0-175.315 0-263.050 0-38.060 17.639-55.25 56.284-55.405 41.88 0 83.915 0.59 125.795-0.145 19.985-2.348 39.535 6.171 51.585 21.895l1.766-0.885c5.88-2.795 11.755-5.88 17.19-9.255 21.6-14.107 47.765-20.87 73.48-18.96 83.325 1.025 167.675 0.885 251-0.436 3.090-0.436 6.32-0.59 9.41-0.59 33.215 0 63.045 21.6 73.185 54.082 3.677 9.994 6.025 20.133 8.525 30.855 0.885 4.115 1.91 8.23 2.935 12.487 34.535 23.215 34.094 58.93 29.981 91.26 38.499 33.65 41.29 49.38 19.55 104.195 1.475 3.385 2.935 6.755 4.41 10.14 3.23 8.525 7.205 17.485 10.14 26.74zM842.2 449.001c-0.885-2.5-1.91-5-3.23-7.345l-0.295-0.73c-2.795-6.91-6.32-13.665-9.845-20.28-1.615-3.090-3.23-6.171-4.845-9.255l-1.32-2.64 1.32-2.64c1.91-3.82 3.677-7.345 5.295-10.575 7.935-15.728 13.23-26.010 11.46-36.006-1.91-10.575-11.905-21.895-33.355-38.208l-2.935-2.205 0.73-3.525c0.436-1.91 0.73-3.968 1.18-5.88 6.025-31.15 11.32-58.045-22.626-73.775l-2.935-1.32-0.436-3.090c-2.348-14.985-5.435-30.125-9.255-44.815v-0.295c-5.14-23.805-27.92-39.38-51.879-35.42l-0.885 0.145c-58.777 0.59-118.447 0.59-176.045 0.59-20.133 0-40.265 0-60.25 0h-0.885c-32.765-4.845-65.84 5-90.67 26.74l-1.615 1.475h-9.41v269.95h6.32l1.475 1.025c95.81 64.66 137.985 160.035 128.435 291.557 28.36 7.64 58.34-6.025 70.98-33.215 8.96-18.805 13.96-38.79 14.845-59.52-0.59-35.715-3.23-71.71-7.791-107.13v-0.145c-0.885-9.115-1.18-17.78 3.968-22.92 4.845-4.705 12.196-5 22.78-3.82h0.145c51.725 7.205 104.195 6.755 155.765-1.32 13.23-2.348 26.158-6.462 38.499-11.905l0.59-0.145c10.73-3.525 19.395-11.025 24.395-21.165s5.88-21.46 2.348-32.183z" />
<glyph unicode="&#xe90e;" glyph-name="paper_card" d="M846.579 733.846c-0.346 32.645-26.972 58.925-59.617 58.925-0.173 0-0.346 0-0.519 0h-92.253c-1.029 21.135-18.558 37.969-39.857 37.969h-75.418c-4.808 25.77-23.878 46.905-49.992 53.771h-0.173c-36.424 9.279-73.704-12.712-82.983-49.136-0.346-1.548-0.685-3.096-1.029-4.635h-75.418c-21.472 0-38.828-16.837-39.857-37.969h-91.743c-32.645 0.346-59.79-25.77-60.3-58.585v-665.895c0.346-32.645 26.972-58.925 59.617-58.925 0.173 0 0.346 0 0.685 0h548.555c0.173 0 0.519 0 0.685 0 32.472 0 59.098 26.116 59.617 58.415v666.068zM484.943 789.502v29.722c0 2.058 0.346 3.952 0.856 6.010 3.606 14.433 18.385 23.193 32.815 19.414 12.2-3.262 20.616-14.433 20.443-26.972v-28.001h114.244v-34.876h-282.441v34.703h114.073zM805.347 68.461v0c-0.173-10.135-8.416-18.039-18.385-18.039-0.173 0-0.173 0-0.346 0h-549.584c-10.135-0.173-18.385 8.077-18.385 18.039v665.039c0.173 10.135 8.416 18.212 18.558 18.039h92.086c0-0.856 0.173-1.721 0.173-2.577 0.856-19.414 16.664-34.876 36.078-35.392 1.202-0.173 2.404-0.173 3.606-0.173h285.018c1.029 0 2.058 0 3.096 0.173h0.173c20.443 0 36.934 16.664 36.934 36.934v1.029h92.426c0 0 0.173 0 0.173 0 9.962 0 18.212-8.077 18.385-18.039v-665.039z" />
<glyph unicode="&#xe90f;" glyph-name="orders" d="M240.307 15.070c-15.19 0-29.71 5.91-40.68 16.54-11.31 10.97-17.56 25.66-17.56 41.53v657.166c0.17 15.7 6.58 30.387 17.723 41.19s26 16.71 41.53 16.54h131.16v-37.476h278.87v37.476h131.33c15.7 0.17 30.387-5.74 41.53-16.54 11.31-10.97 17.56-25.66 17.723-41.53v-657.166c-0.17-15.7-6.58-30.387-17.723-41.19s-26-16.71-41.53-16.54h-541.36c-0.34 0-0.676 0-1.010 0zM222.587 729.8v-656.49c0-4.73 2.029-9.281 5.4-12.66s7.93-5.060 12.83-5.060h542.38c0.17 0 0.17 0 0.34 0 9.79 0 17.89 7.93 18.060 17.723v656.49c0 4.73-2.029 9.281-5.4 12.66s-7.93 5.23-12.83 5.060h-91.322v-1.010c0-20.090-16.37-36.46-36.46-36.46h-286.97c-20.090 0-36.46 16.37-36.46 36.46v1.010h-91.16c-4.898 0-9.45-1.69-13-5.060-3.38-3.38-5.23-7.766-5.4-12.66zM652.367 710.050h-281.23c-21.61 0-39.33 17.723-39.33 39.33v36.97c0 21.61 17.723 39.33 39.33 39.33h74.61c0.34 1.35 0.51 2.87 0.84 4.22l0.17 0.51c9.45 35.79 46.080 57.56 81.87 48.45h0.17c25.66-6.75 44.565-27.681 49.29-53.007h74.61c10.634 0 20.591-4.22 28.020-11.65 7.26-7.43 11.31-17.39 11.14-27.85v-36.8c-0.17-21.78-17.89-39.5-39.5-39.5zM372.317 750.565h278.87v34.608h-112.59v27.518c0.17 12.66-8.1 23.63-20.090 26.84-14.18 3.545-28.7-5.060-32.41-19.24-0.51-2.029-0.84-4.22-0.84-6.25v-28.87h-112.76v-34.608zM652.537 785.17v0 0zM558.847 812.35v0 0zM464.827 814.54v0 0zM371.137 598.81h338.12zM709.257 578.55h-338.12c-11.14 0-20.26 9.119-20.26 20.26s9.119 20.26 20.26 20.26h338.12c11.14 0 20.26-9.119 20.26-20.26s-9.119-20.26-20.26-20.26zM258.373 584.29l18.74-18.74 56.38 75.12zM277.277 564.2l-19.58 19.41c-0.34 0.34-0.34 0.84 0 1.18s0.84 0.34 1.18 0l18.060-18.060 55.875 74.275c0.34 0.34 0.84 0.51 1.18 0.17s0.51-0.84 0.17-1.18l-56.89-75.79zM371.137 448.57h338.12zM709.257 428.31h-338.12c-11.14 0-20.26 9.119-20.26 20.26s9.119 20.26 20.26 20.26h338.12c11.14 0 20.26-9.119 20.26-20.26s-9.119-20.26-20.26-20.26zM258.373 433.88l18.74-18.74 56.38 75.12zM277.277 413.797l-19.58 19.41c-0.34 0.34-0.34 0.84 0 1.18s0.84 0.34 1.18 0l18.060-18.060 55.875 74.275c0.34 0.34 0.84 0.51 1.18 0.17s0.51-0.84 0.17-1.18l-56.89-75.79zM371.137 298.33h338.12zM709.257 278.072h-338.12c-11.14 0-20.26 9.119-20.26 20.26s9.119 20.26 20.26 20.26h338.12c11.14 0 20.26-9.119 20.26-20.26s-9.119-20.26-20.26-20.26zM258.373 283.646l18.74-18.74 56.38 75.12zM277.277 263.56l-19.58 19.41c-0.34 0.34-0.34 0.84 0 1.18s0.84 0.34 1.18 0l18.060-18.060 55.875 74.275c0.34 0.34 0.84 0.51 1.18 0.17s0.51-0.84 0.17-1.18l-56.89-75.79zM371.137 148.090h338.12zM709.257 127.84h-338.12c-11.14 0-20.26 9.119-20.26 20.26s9.119 20.26 20.26 20.26h338.12c11.14 0 20.26-9.119 20.26-20.26s-9.119-20.26-20.26-20.26zM258.373 133.41l18.74-18.74 56.38 75.12zM277.277 113.32l-19.58 19.41c-0.34 0.34-0.34 0.84 0 1.18s0.84 0.34 1.18 0l18.060-18.060 55.875 74.275c0.34 0.34 0.84 0.51 1.18 0.17s0.51-0.84 0.17-1.18l-56.89-75.79z" />
<glyph unicode="&#xe910;" glyph-name="servicesmenu" d="M736.961 415.561l-244.51-244.68c-6.234-5.73-15.84-5.73-21.91 0l-137.67 137.67c-2.863 3.030-4.38 6.91-4.38 10.95 0 3.88 1.52 7.75 4.38 10.45l21.91 21.91c2.7 2.863 6.57 4.38 10.45 4.38 4.040 0 8.090-1.52 10.95-4.38l105.15-105.15 212.156 212.156c3.030 2.863 6.91 4.38 10.95 4.38 3.88 0 7.75-1.52 10.45-4.38l21.91-21.91c2.863-2.7 4.55-6.57 4.38-10.62 0.17-4.040-1.52-7.92-4.21-10.783zM175.651 81.061h672.696v489.19h-672.696v-489.19zM359.161 661.921v137.67c0.34 8.090-5.9 15-14.154 15.332-0.34 0-0.84 0-1.18 0h-30.5c-8.090 0.34-15-5.9-15.332-14.154 0-0.34 0-0.84 0-1.18v-137.67c-0.34-8.090 5.9-15 14.154-15.332 0.34 0 0.84 0 1.18 0h30.5c8.090-0.34 15 5.9 15.332 14.154 0 0.508 0 0.84 0 1.18zM726.011 661.921v137.67c0.34 8.090-5.9 15-14.154 15.332-0.34 0-0.84 0-1.18 0h-30.5c-8.090 0.34-15-5.9-15.332-14.154 0-0.34 0-0.84 0-1.18v-137.67c-0.34-8.090 5.9-15 14.154-15.332 0.34 0 0.84 0 1.18 0h30.5c8.090-0.34 15 5.9 15.332 14.154 0 0.508 0 0.84 0 1.18zM909.52 692.591v-611.53c-0.508-33.53-27.64-60.66-61.17-61.17h-672.696c-16.18-0.17-31.85 6.4-42.97 18.2-11.63 11.29-18.2 26.79-18.2 42.97v611.53c-0.17 16.18 6.4 31.85 18.2 42.97 11.29 11.8 26.79 18.37 42.97 18.2h61.17v45.835c-0.34 20.39 7.92 39.94 22.41 54.090 14.154 14.66 33.7 22.75 53.92 22.41h30.5c20.39 0.34 39.77-7.75 53.92-22.41 14.66-14.154 22.75-33.7 22.41-53.92v-45.835h183.51v45.67c-0.34 20.39 7.92 39.94 22.58 54.090 14.154 14.66 33.7 22.75 53.92 22.41h30.5c20.39 0.34 39.77-7.75 53.92-22.41 14.66-14.154 22.75-33.7 22.41-53.92v-45.835h61.17c16.18 0.17 31.85-6.4 42.97-18.2 12.13-11.29 18.703-26.96 18.54-43.14z" />
<glyph unicode="&#xe911;" glyph-name="edit" d="M588.367 718.228l63.347-45.685-138.874-188.98c-55.43-75.375-111.31-150.601-165.98-226.59-5.48-11.415-19.030-16.145-30.46-10.81-0.605 0.31-1.365 0.605-1.985 1.070-17.060 6.855-34.868 12.035-54.205 18.58l328.16 452.42zM726.327 617.573l-333.34-453.63-42.48 66.395 315.52 430.645 60.3-43.395zM215.897 65.106l35.020 176.79c54.825-3.040 102.175-39.44 119.235-91.675l-154.255-85.124zM808.102 731.783l-23.45-33.81-137.815 100.345 22.845 32.585c54.515-19.495 102.485-53.755 138.42-99.135zM606.947 743.043l23.45 33.345 137.965-100.345-23.605-33.049-137.815 100.050z" />
<glyph unicode="&#xe912;" glyph-name="edit_1" d="M794.191 771.771l-384.665-384.497c-2.878-2.878-4.399-6.603-4.399-10.665v-50.602c0-8.292 6.767-15.064 15.064-15.064v0h50.092c4.062 0 7.951 1.521 10.829 4.399l384.834 384.665c5.92 5.92 5.92 15.401 0 21.321 0 0 0 0 0 0l-50.602 50.602c-5.756 5.756-15.228 5.756-21.157-0.173zM929.921 807.983l-27.751 27.751c-6.093 5.246-13.88 8.292-21.831 8.292-8.124 0-16.075-3.044-22.004-8.461l-21.494-21.658c-2.878-3.044-2.878-7.614 0-10.665l61.094-61.094c2.878-3.044 7.787-3.044 10.665-0.173 0 0 0 0 0.173 0.173l21.494 21.494c5.419 6.093 8.461 13.88 8.292 22.004-0.173 8.292-3.215 16.248-8.634 22.341zM500.405 284.496c-5.756-5.756-13.37-8.971-21.494-8.971h-78.863c-16.757 0-30.465 13.707-30.465 30.465v79.032c0 8.124 3.215 15.738 8.971 21.494l282.446 282.446c2.878 3.044 2.878 7.787 0 10.665-1.357 1.357-3.388 2.203-5.246 2.203h-458.623c-61.604 0-111.696-49.924-111.696-111.696v-426.465c0-61.768 50.092-111.696 111.696-111.696h487.386c61.768 0 111.696 50.092 111.696 111.696v397.694c0 4.233-3.388 7.614-7.614 7.614-2.031 0-3.889-0.847-5.246-2.203l-282.956-282.282z" />
<glyph unicode="&#xe913;" glyph-name="search_1" d="M948.083 98.953l-281.128 234.248c37.92 53.264 60.156 118.24 60.156 188.399 0 179.608-145.992 325.6-325.6 325.6s-325.6-145.992-325.6-325.6c0-179.608 145.992-325.6 325.6-325.6 86.008 0 164.264 33.44 222.531 88.080l282.336-235.28 41.712 50.16zM401.515 781.876c143.584 0 260.272-116.864 260.272-260.272 0-143.584-116.864-260.272-260.272-260.272s-260.272 116.864-260.272 260.272c0 143.584 116.693 260.272 260.272 260.272z" />
<glyph unicode="&#xe914;" glyph-name="search_2" d="M891.166 137.51l-152.456 152.456c114.306 152.298 83.628 368.61-68.675 482.916s-368.61 83.628-482.916-68.675-83.628-368.61 68.675-482.916c122.712-92.034 291.52-92.034 414.241 0l152.456-152.456c8.722-9.656 21.338-15.102 34.414-14.799 27.1 0 49.056 21.956 49.056 49.056 0.316 13.076-5.144 25.692-14.799 34.414zM218.419 496.004c0 135.644 109.944 245.582 245.582 245.582s245.582-109.944 245.582-245.582-109.944-245.582-245.582-245.582-245.582 109.944-245.582 245.582z" />
<glyph unicode="&#xe915;" glyph-name="delete" d="M391.945 593.031h48.14v-384.515h-48.14v384.515zM487.93 593.031h48.14v-384.515h-48.14v384.515zM584.21 593.031h48.14v-384.515h-48.14v384.515zM199.695 737.301h624.61v-48.14h-624.61v48.14zM630.52 713.23h-44.79v47.985c0 14.169-11.43 25.59-25.59 25.59h-95.971c-14.169 0-25.59-11.43-25.59-25.59v-48.14h-44.79v48.14c0.456 38.695 31.685 69.93 70.38 70.38h95.971c38.695-0.456 69.93-31.685 70.38-70.38v-47.985zM656.265 64.406h-288.39c-39.3 1.070-71.605 31.235-75.257 70.38l-44.79 576.616 48.14 3.195 44.79-576.616c1.675-14.020 13.105-24.83 27.265-25.59h288.235c14.315 0.31 26.055 11.275 27.265 25.59l44.79 576.616 48.14-3.195-44.79-576.616c-3.35-39.3-35.95-69.62-75.405-70.38z" />
<glyph unicode="&#xe916;" glyph-name="mic" d="M818.1 754.1c-81.801 81.801-190.52 126.9-306.1 126.9s-224.477-45.103-306.1-126.9-126.9-190.52-126.9-306.1 45.103-224.477 126.9-306.1c81.801-81.801 190.52-126.9 306.1-126.9s224.477 45.103 306.1 126.9c81.801 81.801 126.9 190.52 126.9 306.1s-45.103 224.304-126.9 306.1zM512.001 57.867c-104.266 0-202.18 40.641-275.918 114.21s-114.21 171.661-114.21 275.918 40.641 202.18 114.21 275.918c73.749 73.749 171.661 114.21 275.918 114.21s202.18-40.641 275.918-114.21 114.21-171.661 114.21-275.918c0-104.266-40.641-202.18-114.383-275.918-73.569-73.749-171.661-114.21-275.745-114.21zM512.001 363.626c61.394 0.173 111.123 50.075 111.123 111.474v94.659c0 61.394-49.729 111.123-111.123 111.123s-111.123-49.729-111.123-111.123v-94.659c0-61.571 49.729-111.296 111.123-111.474zM433.806 569.581c-0.856 43.385 33.784 79.224 77.166 80.074s79.224-33.784 80.074-77.166c0-1.029 0-1.885 0-2.914v-83.686c-0.856-43.385-36.525-78.025-80.074-77.166-42.349 0.683-76.483 34.813-77.166 77.166v83.686zM671.141 475.099c0 9.088-7.376 16.464-16.464 16.464s-16.464-7.376-16.464-16.464c0 0 0 0 0 0 0-69.798-56.584-126.385-126.385-126.385s-126.385 56.584-126.385 126.385c0.173 8.915-7.030 16.291-16.118 16.464-0.173 0-0.173 0-0.346 0-8.915 0.173-16.291-7.030-16.464-16.118 0-0.173 0-0.173 0-0.346 0-81.628 61.726-149.879 142.849-158.447v-68.597h-91.745c-9.088 0-16.464-7.376-16.464-16.464s7.376-16.464 16.464-16.464c0 0 0 0 0 0h209.725c9.088 0 16.464 7.376 16.464 16.464s-7.376 16.464-16.464 16.464c0 0 0 0 0 0h-85.061v68.597c81.282 8.405 142.849 76.834 142.849 158.447z" />
<glyph unicode="&#xe917;" glyph-name="menu" d="M889.047 476.642h-754.095c-15.75 0-28.638-12.888-28.638-28.638s12.888-28.638 28.638-28.638h754.095c15.75 0 28.638 12.888 28.638 28.638s-12.888 28.638-28.638 28.638zM134.952 670.728h754.095c15.75 0 28.638 12.888 28.638 28.638s-12.888 28.638-28.638 28.638h-754.095c-15.75 0-28.638-12.888-28.638-28.638s12.888-28.638 28.638-28.638zM889.047 225.271h-754.095c-15.75 0-28.638-12.888-28.638-28.638s12.888-28.638 28.638-28.638h754.095c15.75 0 28.638 12.888 28.638 28.638s-12.888 28.638-28.638 28.638z" />
<glyph unicode="&#xe918;" glyph-name="wallet" d="M928.092 610.033c-0.657 2.472-1.147 5.1-1.648 7.569-0.824 3.619-1.648 7.405-2.628 11.188-14.145 56.256-60.376 97.546-117.779 105.441 0 0 0 0-0.167 0l-1.648 12.004c-1.481 11.024-2.962 22.204-4.443 33.395-0.49 6.091-1.648 12.004-3.452 17.764-13.652 43.595-60.376 68.271-104.127 54.617-120.741-30.099-241.483-60.209-362.234-90.308-10.2-2.628-20.567-5.267-30.762-7.728-25.5-6.581-51.98-13.329-78.137-18.919-24.186-3.95-47.704-13.485-67.937-27.638-30.099-22.204-49.842-54.775-55.432-91.622-0.331-1.147-0.657-2.305-1.314-3.288l-0.49-0.824v-445.63l0.167-0.49c0.331-1.648 0.824-3.288 1.147-4.933 0.824-3.95 1.81-8.062 2.795-12.171 7.569-31.090 25.664-59.051 50.998-78.627s57.080-30.099 88.994-29.442c90.144-0.167 180.783-0.167 271.592-0.167 90.965 0 181.941 0 272.082 0.167 0.991 0 1.971 0 3.129 0 70.732 0 130.451 52.147 139.827 122.389 0.167 0.49 0.331 0.991 0.657 1.314l0.657 0.991v444.48l0.167 0.49zM787.445 83.467c-182.921-0.167-368.314-0.167-551.079 0-51.323 0.167-94.261 40.299-97.713 91.622-0.331 5.267-0.657 10.857-0.657 16.614v395.952c-0.167 2.795-0.167 5.429 0 8.229 1.648 54.285 46.39 97.382 100.508 97.382 0.991 0 2.138 0 3.288 0 179.302 0.167 361.243 0.167 540.712 0h0.167c49.018 2.138 92.446-32.738 100.842-81.099 1.971-16.948 2.795-34.381 2.305-51.49v-0.331c0.167-7.569 0.167-14.966 0-22.861 0-2.628 0-5.429 0-8.229h-100.341c-75.008-0.49-139.994-54.285-154.47-127.813-8.229-41.619 0.331-83.727 23.852-118.937s59.385-59.051 101.001-67.113c10.69-1.971 21.714-2.962 32.571-3.129 20.4-0.167 41.123-0.167 61.192 0 10.2 0 20.4 0 30.6 0h5.429c5.1-34.381-4.276-69.251-25.99-96.566-18.095-20.723-44.575-32.404-72.213-32.24zM670.818 377.92c3.129 57.737 49.018 104.294 106.761 108.080 25.333 1.648 51.49 1.147 76.656 0.824 10.2-0.167 20.723-0.331 31.090-0.331v-231.783c-38.985-1.314-78.627-0.49-117.456 2.472-58.895 8.229-101.664 61.192-97.056 120.741zM401.856 735.878l39.976 10.033c86.525 21.547 172.888 43.097 259.421 64.652l0.49 0.167c19.905 7.405 41.947-1.314 51.323-20.4 2.628-6.581 4.276-13.485 4.933-20.4v-0.167c1.314-8.719 2.305-17.438 3.452-26.647 0.331-2.305 0.657-4.766 0.824-7.238h-360.419zM163.659 143.178v34.052h68.761v-34.052h-68.761zM337.048 177.228v-34.052h-68.761v34.052h68.761zM441.665 177.394v-34.381h-68.271v34.381h68.271zM477.688 143.019v34.381h68.271v-34.381h-68.271zM651.077 177.228v-33.718h-68.594v33.718h68.594zM686.933 143.178v34.052h68.761v-34.052h-68.761zM860.322 177.228v-34.052h-68.271v34.052h68.271zM163.659 631.085h68.271v-33.885h-68.271v33.885zM337.048 630.927v-33.718h-68.43v33.718h68.43zM441.498 630.76v-33.718h-68.271v33.718h68.271zM477.688 597.198v33.562h68.43v-33.562h-68.43zM651.077 630.76v-33.562h-68.594v33.562h68.594zM755.694 630.76v-33.562h-68.43v33.562h68.43zM791.884 630.927h68.43v-33.885h-68.43v33.885zM826.103 369.368c-0.167-28.952-23.685-52.147-52.476-52.147-28.952 0.167-52.147 23.685-52.147 52.476 0.167 28.785 23.524 52.147 52.314 52.147s52.314-23.524 52.314-52.476zM791.064 369.858c-0.331 9.376-7.895 16.948-17.271 17.104-9.71-0.331-17.104-8.385-16.781-18.095 0.331-9.048 7.569-16.286 16.614-16.781 9.71 0.167 17.438 8.062 17.438 17.764v0z" />
<glyph unicode="&#xe919;" glyph-name="pasword" d="M807.724 602.911h-79.072v65.792c0 104.192-97.224 189.097-216.652 189.097s-216.488-84.906-216.488-189.097v-65.792h-79.236c-46.996 0-85.232-38.24-85.232-85.232v-394.248c0-46.996 38.24-85.232 85.232-85.232h591.448c46.996 0 85.232 38.24 85.232 85.232v394.248c0 46.996-38.24 85.232-85.232 85.232zM334.404 668.692c0 82.805 79.728 150.216 177.596 150.216 98.032 0 177.76-67.408 177.76-150.216v-65.3h-355.356v65.3zM854.076 123.431c0-25.6-20.74-46.34-46.34-46.34h-591.448c-25.6 0-46.34 20.74-46.34 46.34v394.248c0 25.6 20.74 46.34 46.34 46.34h591.448c25.6 0 46.34-20.74 46.34-46.34v-394.248zM512.002 405.863c-46.996 0-85.232-38.24-85.232-85.232s38.24-85.232 85.232-85.232c46.996 0 85.232 38.24 85.232 85.232s-38.24 85.232-85.232 85.232zM512.002 274.291c-25.6 0-46.34 20.74-46.34 46.34s20.74 46.34 46.34 46.34 46.34-20.74 46.34-46.34-20.74-46.34-46.34-46.34zM314.964 405.863c-46.996 0-85.232-38.24-85.232-85.232s38.24-85.232 85.232-85.232c46.832 0 85.068 38.24 85.232 85.232 0 46.996-38.24 85.232-85.232 85.232zM314.964 274.291c-25.6 0-46.34 20.74-46.34 46.34s20.74 46.34 46.34 46.34 46.34-20.74 46.34-46.179c-0.164-25.6-20.904-46.504-46.34-46.504zM709.212 405.863c-46.996 0-85.232-38.24-85.232-85.232s38.24-85.232 85.232-85.232c46.832 0 85.068 38.24 85.232 85.232 0 46.996-38.24 85.232-85.232 85.232zM709.212 274.291c-25.6 0-46.34 20.74-46.34 46.34s20.74 46.34 46.34 46.34c25.6 0 46.34-20.74 46.34-46.179-0.164-25.6-20.904-46.504-46.34-46.504z" />
<glyph unicode="&#xe91a;" glyph-name="pasword_f" d="M830.974 583.835h-85.872v62.387c0 128.553-104.722 233.275-233.275 233.275s-233.275-104.722-233.275-233.448v-62.216h-85.699c-39.077 0-70.956-31.708-70.956-70.956v-425.417c0-39.077 31.708-70.956 70.956-70.956h638.294c39.077 0 70.956 31.708 70.956 70.956v425.417c-0.173 39.248-31.881 70.956-71.129 70.956zM319.694 646.058c0 106.097 86.218 192.313 192.142 192.313s192.142-86.218 192.142-192.142v-62.387h-384.275v62.216zM299.123 229.21c-39.077 0-70.956 31.708-70.956 70.956 0 39.077 31.708 70.956 70.956 70.956s70.956-31.708 70.956-70.956c0-39.077-31.708-70.792-70.956-70.956zM511.827 229.21c-39.077 0-70.956 31.708-70.956 70.956 0 39.077 31.708 70.956 70.956 70.956s70.956-31.708 70.956-70.956c0-39.077-31.708-70.956-70.956-70.956zM724.54 229.21c-39.077 0-70.956 31.708-70.956 70.956 0 39.077 31.708 70.956 70.956 70.956s70.956-31.708 70.956-70.956c0-39.077-31.708-70.956-70.956-70.956z" />
<glyph unicode="&#xe91b;" glyph-name="wallet_menu" d="M170.012 448h228.052v-64.196h-228.052v64.196zM170.012 319.608h114.026v-64.016h-114.026v64.016zM340.962 319.608h114.026v-64.016h-114.026v64.016zM284.038 512.196h57.104l114.026 128.212h-57.104zM911.090 768.8h-798.18c-57.104 0-57.104-64.196-57.104-64.196v-513.208c0 0 0-64.196 57.104-64.196h798.18c57.104 0 57.104 64.196 57.104 64.196v513.208c0 0 0 64.196-57.104 64.196zM911.27 640.408h-342.26l-114.026-128.212h456.104v-288.612c0 0 0-32.008-28.552-32.008h-741.076c-28.552 0-28.552 32.008-28.552 32.008v288.612h57.104l114.026 128.212h-171.125v32.008c0 0 0 32.008 28.552 32.008h741.26c28.552 0 28.552-32.008 28.552-32.008v-32.008zM454.986 448h171.125v-64.196h-171.125v64.196z" />
<glyph unicode="&#xe91c;" glyph-name="cart" d="M959.455 631.36c-9.165 0.185-18.325 0.185-27.49 0.365-23.090 0.365-46.915 0.915-70.375 0-2.565 0-10.445-0.365-12.645 1.835-1.1 1.1-2.2 4.030-2.015 11.911 1.1 33.54 0.915 67.81 0.55 100.795 0 13.38-0.185 26.755-0.185 40.135v27.855h-89.619c-7.147 0-14.295 0-21.44 0-17.225 0-35.005 0.185-52.415-0.365h-0.915c-4.58-0.735-8.795 2.015-10.080 6.415l-0.185 0.55c-4.58 11.545-10.080 22.725-16.495 33.54-4.4 7.147-9.715 13.745-14.66 20.16-2.2 2.75-4.58 5.68-6.78 8.615l-2.2 2.93h-22.91l-1.65-1.1c-1.465-0.915-3.115-1.835-4.58-2.93-3.3-2.015-6.23-3.85-9.345-5.5-52.050-25.475-104.095-50.765-155.96-76.24-28.59-13.93-34.090-29.505-20.71-57.545 9.345-19.425 18.875-39.035 28.225-57.911 7.147-14.66 14.295-29.325 21.44-43.985 1.465-2.75 2.565-5.68 4.030-9.165h-102.815l2.2-45.265h545.585l-48.383-349.675c-0.915-0.185-1.835-0.185-2.75-0.185-164.755 0.185-331.345 0.185-495.19-0.185 0 0-0.185 0-0.185 0-5.865 0-7.33 1.1-9.53 7.88-8.795 26.205-17.775 52.599-26.755 78.070-4.765 13.56-9.345 27.125-13.93 40.685-34.090 98.415-68.36 198.66-102.080 297.625l-0.185 0.735c-2.93 8.43-6.78 19.795-23.64 19.425-30.97-0.735-62.676-0.915-93.1-1.1-11.911 0-23.825-0.185-35.735-0.185h-7.33v-42.15h7.33c9.53 0 19.060 0 28.59 0 23.275 0 47.465-0.185 71.29 0.735l1.285 0.185c3.48 0.55 7.147-0.365 10.080-2.382 2.93-2.2 4.765-5.315 5.315-8.795l0.365-1.1c22.175-65.61 44.9-132.135 67.075-196.645 23.825-69.64 48.383-141.665 72.39-212.59 2.75-15.58 16.495-26.755 32.070-26.755 1.285 0 2.75 0 4.030 0.185 116.375 0.55 234.765 0.55 349.125 0.55 34.637 0 69.46 0 104.095 0h95.48l1.285 5.68c0.55 2.2 0.915 4.215 1.465 6.050 0.915 3.665 1.835 7.33 2.2 10.995 4.030 30.24 8.245 60.295 12.28 90.535 8.615 64.145 17.595 130.305 26.755 195.545 3.48 25.109 7.515 50.58 11.363 75.14 1.835 11.545 3.665 23.090 5.5 34.637l0.185 21.99h-7.33zM697.385 770.825h106.11v-137.815c-1.465 0-2.75 0-4.215 0-10.995 0-22.175-0.185-33.17 0.185-0.915 0.365-1.65 0.915-2.2 1.65-20.525 41.42-40.685 82.47-61.945 125.905l-4.58 10.080zM481.68 712l157.795 76.97 76.605-156.51h-17.045c-18.695 0-37.385 0-56.080 0.185-36.835 0.185-74.955 0.185-112.345-0.185h-1.1c-5.68-0.915-11.363 2.382-13.38 7.88l-0.185 0.55c-8.065 17.96-16.675 35.555-25.84 54.065-2.75 5.315-5.5 11.18-8.43 17.045zM456.935 762.030l158.16 76.97 5.68-11.18-158.16-76.97-5.68 11.18zM460.6 488.23h43.435v-171.905h-43.435v171.905zM540.69 316.14h43.435v171.905h-43.435zM620.78 316.14h43.435v171.905h-43.25zM780.77 486.215h43.985v-170.255h-43.985v170.255zM380.7 487.495h42.885v-170.99h-42.885v170.99zM701.23 488.41h42.7v-173.005h-42.7v173.005zM439.895 179.79c-0.365 0-0.55 0-0.915 0-46.185 0-84.12-37.385-84.67-83.755-0.185-22.54 8.245-43.985 24.010-60.11s37.020-25.29 59.56-25.475c0.365 0 0.735 0 0.915 0 46.185 0 84.12 37.385 84.67 83.57v1.1c0.55 46.55-37.205 84.485-83.57 84.67zM439.345 56.085c0 0-0.185 0-0.185 0-21.81 0.365-39.22 18.51-38.854 40.135 0.55 20.892 17.775 37.935 38.67 37.935 0.185 0 0.365 0 0.55 0h0.55c21.075 0 38.12-17.225 38.12-38.485 0-0.365 0-0.735 0-1.1-0.365-21.26-17.775-38.485-38.854-38.485zM799.465 180.155c-0.365 0-0.735 0-1.1 0-45.45 0-83.205-36.655-84.12-82.285 0-1.1 0-2.2 0-3.3 0-46.735 37.935-84.67 84.67-84.67 0 0 0 0 0 0 46.735 0 84.67 37.935 84.67 84.485v0.365c0.185 46.735-37.385 85.035-84.12 85.402zM798.18 134.34c0.185 0 0.365 0 0.55 0v0c0.365 0 0.735 0 1.1 0 21.44-0.55 38.485-18.695 37.935-40.135-0.365-10.445-4.58-20.16-12.28-27.305-7.515-7.147-17.41-10.815-27.855-10.63-21.44 0.55-38.485 18.695-37.935 40.32 0.55 21.075 17.595 37.755 38.485 37.755z" />
<glyph unicode="&#xe91d;" glyph-name="services" d="M819.453 8.772c-7.504 1.92-14.84 4.712-21.824 8.032-12.92 6.808-24.792 15.192-35.792 24.792-70.704 70.008-140.888 140.712-211.071 210.896-15.712 15.712-24.44 37.008-24.44 59.184-0.696 4.368-2.272 8.552-4.888 12.048-2.096 2.445-4.192 4.712-6.632 6.632-9.424 10.648-18.159 19.203-35.264 14.144-12.744-2.616-25.84 2.272-33.872 12.568-4.016 4.192-8.208 8.379-12.048 12.744-18.159 19.376-17.632 49.584 1.048 68.264 3.144 2.968 6.456 5.76 10.128 8.208-15.712 15.712-29.856 29.68-43.819 43.648-63.024 63.024-126.224 126.224-189.248 189.422-3.489 4.368-9.256 6.112-14.664 4.888-9.080-1.744-18.504-2.968-27.584-4.536-8.208-2.096-16.936 1.92-20.776 9.424-24.264 42.248-48.536 84.148-72.8 126.224-4.888 7.16-3.664 16.76 2.616 22.52 14.144 14.488 28.456 28.632 42.944 42.944 5.76 6.808 15.888 8.032 23.216 2.792 41.728-24.093 83.448-48.184 125.176-72.448 7.856-4.016 12.048-12.92 9.776-21.472-1.744-10.128-3.489-20.080-4.536-30.2-0.176-3.32 0.872-6.632 2.968-9.080 76.992-77.336 154.152-154.504 231.32-231.672 0.872-0.696 1.92-1.4 2.792-2.096 2.968 2.792 6.112 5.76 9.256 8.728 18.856 18.856 49.232 19.032 68.088 0.352 10.472-9.6 23.048-18.159 24.616-33.872 0.872-8.032-0.696-16.236-0.522-24.264 0.352-3.32 1.224-6.632 2.792-9.776 0.522-1.568 2.445-2.445 3.664-3.84 9.776-14.664 26.36-23.392 43.992-23.392 15.712-0.696 30.552-7.856 40.851-19.728 72.104-71.928 144.203-143.856 216.128-215.784 14.84-15.192 24.792-34.568 28.28-55.344 0.352-2.272 1.224-4.536 1.744-6.632v-28.104c-0.522-1.92-1.224-3.84-1.744-5.76-6.288-40.504-34.917-74.024-74.024-86.592l-12.224-4.192-43.648 0.352zM915.645 120.677c-0.522 19.904-8.728 38.928-23.048 52.896-69.832 69.832-139.664 139.84-209.32 210.024-11.346 12.224-28.104 17.984-44.52 15.36-7.335-1.224-14.84 1.224-19.904 6.632-12.048 12.224-24.44 24.264-36.488 36.664-7.856 5.76-9.424 16.76-3.664 24.616 0.352 0.352 0.696 0.872 1.048 1.224 4.712 6.456 3.84 15.36-2.096 20.6-2.445 2.445-4.888 5.064-7.335 7.68-10.302 10.648-17.808 10.824-28.28 0.352-23.92-23.92-47.488-48.536-72.104-71.752-22.52-21.472-15.712-27.232 1.744-43.12 5.24-5.584 13.968-6.288 20.080-1.744 7.335 6.456 18.68 5.936 25.137-1.4 0.522-0.522 0.872-1.048 1.224-1.568 12.048-11.872 23.92-24.093 35.961-35.961 6.112-5.412 8.552-13.616 6.456-21.472-2.792-13.269 1.048-26.888 10.128-36.84 4.192-5.24 9.256-9.776 13.968-14.488 67.56-67.39 134.952-134.6 202.512-201.992 20.6-23.048 53.599-30.376 81.88-18.159 29.152 12.048 47.664 41.024 46.616 72.448v0zM487.397 491.837c-20.6 20.424-40.328 40.152-60.408 59.88-60.056 59.88-120.112 119.936-179.992 179.816-7.335 6.112-10.472 15.888-8.032 25.137 1.744 7.68 2.968 15.536 3.32 23.392 0 3.489-1.568 6.632-4.192 8.904-31.6 18.68-63.376 37.008-95.496 55.168-2.968 1.048-6.112 0.696-8.728-1.048-5.76-4.888-10.648-10.824-16.408-15.888-4.368-3.84-4.368-6.808-1.568-11.872 17.112-29.152 34.216-58.488 50.632-88.16 4.536-8.208 8.904-12.744 18.856-9.424 5.24 1.744 11.176 1.224 16.408 2.616 10.128 2.792 20.952-0.696 27.408-8.904 76.992-77.336 154.152-154.504 231.32-231.496 2.445-2.445 4.888-4.712 7.16-6.632l19.728 18.504zM951.085 670.605c-5.24-20.248-9.424-41.024-16.064-60.752-11.176-33.344-28.104-64.423-50.28-91.832-36.488-51.328-104.4-69.312-161.312-42.775-10.648 4.192-20.776 9.080-33.52 14.664-4.536-5.064-9.424-11.176-15.016-16.76-9.6-9.6-19.904-10.648-27.76-3.144-7.16 7.335-6.808 19.032 0.352 26.016 0.696 0.696 1.4 1.224 2.096 1.744 7.68 7.68 15.192 15.36 23.048 23.048 5.936 8.379 17.456 10.128 25.84 4.192 0.352-0.176 0.522-0.352 0.872-0.696 20.248-12.392 42.6-20.776 65.992-24.616 27.936-4.712 56.392 4.016 76.816 23.392 42.072 43.648 67.39 100.906 71.232 161.312-2.968-2.792-5.24-4.712-7.504-6.632-18.68-18.68-37.184-37.36-55.864-55.864-19.552-21.296-52.72-22.872-74.024-3.32-1.048 1.048-2.272 2.096-3.32 3.32-28.983 28.808-57.96 57.784-86.944 86.944-22 19.552-24.093 53.072-4.536 75.072 1.4 1.568 2.792 2.968 4.192 4.192 17.112 17.28 34.392 34.216 51.676 51.328 3.144 2.968 6.632 5.584 10.128 8.552l-1.4 3.144c-11.872-1.568-23.744-2.445-35.264-5.064-42.072-9.424-81.352-28.983-114-57.264-34.392-26.36-46.264-72.8-28.632-112.432 5.24-13.269 11.52-26.184 18.68-38.584 6.632-12.224 6.456-18.328-3.144-28.104-15.192-15.36-30.552-30.728-45.912-45.912-5.76-7.856-16.936-9.424-24.616-3.664-7.856 5.76-9.424 16.936-3.664 24.616 1.048 1.4 2.272 2.616 3.664 3.664 13.096 12.92 26.712 25.488 39.632 37.712-6.112 13.44-11.696 24.616-16.236 36.136-24.44 55.168-7.335 119.76 40.851 155.904 42.248 35.264 93.224 58.488 147.52 66.864 21.648 4.016 43.992 3.32 65.296-2.272 9.776-1.224 16.76-9.952 15.536-19.728-0.522-4.888-3.32-9.424-7.335-12.392-28.456-28.632-56.912-56.912-85.544-85.72-12.92-12.92-12.92-20.952 0.176-34.040 27.060-27.060 54.296-54.12 81.352-81.181 12.92-12.92 21.296-12.744 34.040 0 27.936 27.936 56.040 55.688 83.976 83.448 15.016 14.84 29.152 11 34.744-9.256 1.568-5.584 2.792-11.176 4.192-16.76v-36.488zM236.525 8.772c-17.632 3.84-34.917 8.552-52.024 14.488-71.752 29.856-115.92 102.656-109.112 180.168 7.335 79.608 66.168 144.904 144.552 160.264 20.776 4.016 42.072 4.192 62.672 0.522 4.368-0.522 8.728 0.872 12.048 3.84 25.488 24.968 50.632 50.28 75.944 75.416 3.32 3.489 7.68 6.112 12.392 7.68 6.808 1.744 13.968-1.4 17.28-7.504 4.192-5.936 4.016-13.968-0.696-19.728-1.92-2.445-4.192-4.888-6.456-7.16-26.184-26.36-52.896-52.2-78.736-78.912-7.335-8.904-19.376-12.392-30.376-9.256-77.688 16.76-154.152-32.648-170.912-110.336s32.648-154.152 110.336-170.912c77.688-16.76 154.152 32.648 170.912 110.336 3.664 16.76 4.192 33.872 1.744 50.8-0.696 5.24-2.096 10.302-3.84 15.192-3.144 7.856-0.872 16.76 5.584 22.344 20.952 20.952 41.552 41.896 62.5 62.848 5.936 7.856 17.112 9.6 24.968 3.664s9.6-17.112 3.664-24.968c-1.048-1.4-2.445-2.792-3.84-3.84-17.632-17.984-35.792-35.44-53.248-53.599-2.616-2.792-3.84-6.632-3.32-10.472 17.984-85.896-30.904-171.785-114-200.246-14.144-4.368-28.632-7.856-43.12-10.648h-34.917zM277.205 290.021c4.192-1.568 8.032-3.84 11.52-6.456 20.080-19.552 39.808-39.632 59.704-59.36 5.24-4.888 7.16-12.392 4.888-19.376-6.632-26.016-13.44-52.024-19.728-78.040-1.568-8.208-8.032-14.664-16.236-16.236-26.184-6.984-52.552-13.968-78.56-21.472-7.856-2.792-16.76-0.522-22.344 5.76-18.856 19.203-37.884 38.056-56.912 56.912-6.288 5.412-8.728 14.313-5.936 22.17 7.504 25.84 14.488 51.676 21.648 77.512 1.224 6.808 6.112 12.392 12.744 14.313 27.408 7.856 54.992 15.536 82.576 23.216 2.096 0.522 4.368 0.872 6.632 1.048zM316.485 203.605c-0.872 1.92-2.096 3.664-3.32 5.24-13.096 13.44-26.36 26.888-39.808 39.632-2.445 2.096-5.76 2.968-9.080 2.445-17.632-4.368-35.088-9.080-52.376-14.144-3.144-1.224-5.584-3.664-6.632-6.632-5.064-17.28-9.776-34.917-14.144-52.376-0.522-3.144 0.352-6.456 2.445-8.904 12.744-13.44 25.664-26.36 39.104-39.104 2.792-2.272 6.288-3.144 9.776-2.616 17.984 4.192 35.616 9.080 53.424 13.968 2.445 0.522 4.536 2.272 5.584 4.368 5.064 18.68 9.6 37.536 15.016 58.136v0zM838.654 143.021l-22.52-21.472-209.148 209.32 22.52 21.472 209.148-209.32z" />
<glyph unicode="&#xe91e;" glyph-name="location" d="M512 925.399c-197.091 0.57-357.43-159.005-358.003-356.099 0-0.57 0-1.334 0-1.904 0-208.709 179-422.366 309.445-572.803 12.188-13.71 29.136-22.281 47.415-23.994h2.286c18.282 1.713 35.039 10.284 47.415 23.994 130.442 150.437 309.445 364.097 309.445 572.803 0.382 197.282-159.005 357.43-356.29 358.003-0.57 0-1.143 0-1.713 0zM515.429 34.013c-1.334-1.143-2.665-2.095-3.999-2.856-1.143 1.522-2.477 2.665-3.808 3.999-109.304 125.682-294.019 338.008-294.019 532.243-2.477 164.72 128.92 300.304 293.828 302.969 164.72 2.477 300.304-128.92 302.969-293.637 0-3.047 0-6.094 0-9.332 0-194.235-184.715-406.561-294.971-533.386v0zM655.2 543.595c0-79.089-64.114-143.2-143.2-143.2s-143.2 64.114-143.2 143.2c0 79.089 64.114 143.2 143.2 143.2s143.2-64.114 143.2-143.2z" />
<glyph unicode="&#xe91f;" glyph-name="location_f" d="M507.95-28.944c-43.926 47.604-88.626 93.464-130.424 141.842-83.208 92.304-150.55 197.96-199.12 312.322-40.056 87.466-42.766 187.51-7.354 277.104 44.314 112.428 144.55 193.314 263.752 212.666 141.068 33.864 288.521-20.318 373.858-137.584 71.212-91.336 88.82-213.826 45.862-321.418-36.574-104.108-92.11-200.668-163.514-284.844-54.57-66.374-114.556-127.716-172.222-191.574-3.484-3.096-6.966-5.806-10.836-8.514zM284.448 584.092c-0.388-124.812 100.238-226.212 225.050-226.792 124.812-0.388 226.212 100.238 226.792 225.050v0c0.388 124.812-100.238 226.212-225.050 226.792s-226.212-100.238-226.792-225.050z" />
<glyph unicode="&#xe920;" glyph-name="add" d="M512-8c-121.781 0-236.506 47.408-322.458 133.542-86.134 86.316-133.542 200.856-133.542 322.458 0 121.781 47.408 236.506 133.542 322.458s200.856 133.542 322.458 133.542c121.781 0 236.506-47.408 322.458-133.542 86.134-86.316 133.542-200.856 133.542-322.458 0-121.781-47.408-236.506-133.542-322.458-85.952-86.134-200.674-133.542-322.458-133.542zM512 855.324c-224.742 0-407.324-182.764-407.324-407.324s182.764-407.324 407.324-407.324 407.324 182.764 407.324 407.324-182.582 407.324-407.324 407.324zM549.998 467.578v255.684h-57.541v-255.684h-255.684v-57.541h255.684v-255.503h57.541v255.503h255.503v57.541z" />
<glyph unicode="&#xe921;" glyph-name="attach" d="M843.34 652.071c-67.032 67.688-176.328 68.168-244.016 0.972-0.328-0.328-0.644-0.644-0.972-0.972l-296.316-292.756c-40.484-40.484-40.484-105.9 0-146.374s105.9-40.484 146.374 0l245.152 245.152c12.472 13.76 11.5 35.133-2.271 47.604-12.788 11.66-32.38 11.66-45.18 0l-245.316-244.988c-13.444-12.788-34.816-12.308-47.604 1.136-12.472 12.952-12.472 33.516 0 46.468l296.152 296.152c40.484 40.484 105.9 40.484 146.374 0s40.484-105.9 0-146.374v0l-296.152-292.756c-67.688-67.688-177.464-67.688-245.152 0s-67.688 177.464 0 245.152l391.524 387.964c13.116 12.472 13.599 33.352 1.136 46.468-0.328 0.328-0.808 0.808-1.136 1.136-12.472 13.116-33.352 13.599-46.468 1.136-0.328-0.328-0.808-0.808-1.136-1.136l-394.932-391.36c-94.887-94.887-94.887-248.876 0-343.756s248.876-94.887 343.756 0l296.152 292.756c64.608 70.112 64.608 178.272 0 248.384z" />
<glyph unicode="&#xe922;" glyph-name="time" d="M512 896c-247.486 0-448-200.514-448-448s200.514-448 448-448 448 200.514 448 448c-0.722 247.122-200.878 447.278-448 448zM512 89.6c-197.988 0-358.4 160.412-358.4 358.4s160.412 358.4 358.4 358.4 358.4-160.412 358.4-358.4c-0.54-197.626-160.774-357.86-358.4-358.4zM534.4 672h-67.2v-268.8l233.034-143.434 35.766 58.166-201.6 121.034v233.034z" />
<glyph unicode="&#xe923;" glyph-name="next" d="M512 907c-253.128 0-459-205.872-459-459s205.872-459 459-459c253.128 0 459 205.872 459 459s-205.872 459-459 459zM512 44.95c-222.168 0-403.050 180.882-403.050 403.050s180.882 403.050 403.050 403.050 403.050-180.882 403.050-403.050-180.882-403.050-403.050-403.050zM732.536 454.88l0.182 0.182-146.118 146.118-36.576-36.576 95.422-95.24h-369.008v-51.782h366.114l-85.461-85.461 36.576-36.576 149.2 149.018z" />
<glyph unicode="&#xe924;" glyph-name="star_f" d="M547.892 815.153l89.699-195.459c4.721-11.321 15.101-19.831 27.374-23.597l202.99-31.163c19.831 0 35.875-15.101 35.875-34.946 0-10.394-4.721-20.76-12.273-27.374l-148.235-152.024c-7.555-10.394-12.273-22.67-11.321-34.946l34.946-210.56c3.789-20.76-9.445-41.546-30.202-46.263-8.484-1.884-16.062-0.955-23.597 2.828l-183.183 101.018c-10.394 7.555-24.546 7.555-34.946 0l-183.183-101.018c-17.929-10.394-41.546-3.789-50.985 15.101-4.721 8.484-5.656 18.89-3.789 28.335l34.946 210.56c1.884 13.231-1.884 26.436-11.321 34.946l-151.063 152.024c-14.16 16.994-12.273 42.475 4.721 57.588 5.656 4.721 12.273 7.555 18.89 9.445l202.99 31.163c13.231 1.884 23.597 11.321 27.374 23.597l89.699 194.498c12.273 19.831 37.779 26.436 58.536 14.16 6.617-3.789 12.273-10.394 16.062-17.929z" />
<glyph unicode="&#xe925;" glyph-name="star" d="M895.485 526.595c-0.982 14.517-7.757 29.056-19.376 38.74-10.655 9.682-23.257 14.517-37.767 14.517 0 0 0 0 0 0l-182.056 28.085c-3.884 0.982-6.782 3.884-8.711 7.757l-82.315 179.148-0.982 1.938c-3.884 6.782-8.711 11.609-11.609 16.465-0.982 0.982-1.938 1.938-2.898 2.898l-2.898 2.898-3.884 1.938c-14.517 8.711-30.985 11.609-47.447 7.757s-30.020-13.564-38.74-28.085l-84.246-182.056-0.982-2.898c-0.982-3.884-3.884-4.848-5.81-4.848l-185.917-29.056-2.898-0.982c-9.682-2.898-18.391-6.782-26.158-13.564l-0.982-0.982c-12.593-10.655-19.376-25.172-21.293-41.65-0.982-16.465 3.884-31.952 14.517-44.548l137.518-141.367c1.938-1.938 3.884-5.81 2.898-9.682l-31.952-190.788c-3.884-12.593-1.938-28.085 4.848-42.616 10.655-19.376 30.020-30.020 51.33-30.020 9.682 0 19.376 1.938 28.085 6.782l169.473 93.924c0.982 0.982 2.898 0.982 3.884 0l171.412-94.905c10.655-4.848 23.257-5.81 33.883-4.848h0.982c16.465 2.898 30.020 12.593 39.696 26.158 8.711 13.564 11.609 29.056 8.711 43.572l-31.952 190.788c0 4.848 1.938 10.655 4.848 14.517l133.645 137.518c19.376 12.593 26.158 30.020 25.172 47.447zM843.191 516.909l-139.455-143.327c-9.682-12.593-15.492-30.020-15.492-46.477l31.952-197.559c0.982-3.884 0-6.782-1.938-7.757-1.938-2.898-4.848-3.884-7.757-4.848-1.938 0-4.848 0-6.782 0.982l-165.602 91.995c-17.426 11.609-39.696 11.609-57.143 0l-166.558-91.995c-4.848-2.898-11.609-0.982-13.564 2.898-1.938 2.898-1.938 5.81-1.938 5.81l32.929 197.559c2.898 20.337-3.884 40.665-17.426 53.259l-134.61 138.472c-2.898 2.898-2.898 6.782-2.898 8.711 0 2.898 1.938 6.782 3.884 8.711s4.848 2.898 7.757 3.884l184.961 29.056c20.337 2.898 36.792 17.426 43.572 35.838l81.33 176.239c1.938 2.898 4.848 4.848 8.711 5.81 1.938 0 4.848 0.982 7.757-0.982 0 0 0 0 0-0.982 2.898-2.898 4.848-5.81 5.81-7.757l81.33-178.194c7.757-17.426 23.257-30.020 41.65-34.868l190.788-30.020h2.898c2.898 0 4.848-0.982 5.81-1.938s2.898-2.898 2.898-5.81c0.982-2.898 0-4.848-2.898-6.782z" />
<glyph unicode="&#xe926;" glyph-name="logout" d="M862.998 342.785c-19.37 0-35.095-15.71-35.095-35.095v-140.363c0-19.37-15.71-35.095-35.095-35.095h-561.284c-19.37 0-35.095 15.71-35.095 35.095v140.363c0 19.37-15.71 35.095-35.095 35.095s-35.095-15.71-35.095-35.095v-140.363c0-58.125 46.99-105.27 105.115-105.27 0 0 0 0 0 0h561.135c58.125 0 105.27 46.99 105.27 105.115 0 0 0 0 0 0.155v140.363c0.155 19.37-15.558 35.095-34.785 35.095zM363.346 600.455c0 0 0 0 0 0l113.815 113.815v-406.425c0-19.37 15.71-35.095 35.095-35.095s35.095 15.71 35.095 35.095c0 0 0 0 0 0v406.425l113.815-113.66c13.725-13.725 35.855-13.725 49.58 0s13.725 35.855 0 49.58l-173.925 173.46c-13.725 13.725-35.855 13.725-49.58 0 0 0 0 0 0 0l-173.615-173.615c-13.58-13.725-13.58-35.855 0.155-49.58 13.58-13.58 35.855-13.58 49.58 0z" />
<glyph unicode="&#xe927;" glyph-name="Indian_rupee_sign" d="M229.58 600.126c0 0.161 0 0.314 0 0.47 0.47 0.792 0.941 1.571 1.423 2.363 8.512 19.065 17.172 38.291 25.523 57.356 1.101 2.363 2.202 3.155 4.726 3.155 86.029-0.161 171.894 0 257.928 0 1.101 0 2.051 0 3.306 0-0.161 0.941-0.314 1.262-0.47 1.732-4.565 16.232-11.506 31.35-20.958 45.38-12.766 18.75-28.678 34.344-49.314 44.427-21.742 10.553-44.749 15.13-68.701 15.279-50.266 0.314-100.363 0.161-150.627 0.161-0.941 0-2.051 0-2.994 0 0 0.161 0 0.314 0 0.47 0.314 0.631 0.792 1.423 1.101 2.051 5.196 11.656 10.401 23.321 15.601 34.975 3.934 8.663 7.72 17.494 11.656 26.154 178.983 0 357.818 0 536.804 0-8.982-20.327-18.273-40.654-27.255-61.129-0.941-2.051-2.051-2.679-4.256-2.679-58.927 0-117.693 0-176.62 0-0.941 0-1.732 0-3.306 0 14.809-14.648 25.993-31.202 34.505-49.475s13.869-37.499 17.172-57.665c53.258 0 106.2 0 159.609 0-0.47-1.101-0.792-1.893-1.101-2.524-8.663-19.535-17.494-38.922-26.154-58.457-0.792-1.893-1.732-2.524-3.786-2.524-40.493 0-80.986 0-121.479 0-0.941 0-1.893 0-2.994 0-0.161-2.833-0.314-5.196-0.47-7.72-1.262-18.434-4.256-36.559-10.083-54.040-9.773-29.779-25.845-55.463-49.475-76.099-19.696-17.333-42.695-28.837-67.748-36.559-1.262-0.47-2.524-0.792-4.416-1.423 1.101-0.47 1.571-0.631 2.051-0.941 10.083-3.625 19.378-8.821 28.208-15.13 18.595-13.238 33.565-30.092 47.112-48.213 16.863-22.529 31.202-46.642 43.799-71.695 27.577-54.201 54.832-108.712 82.087-163.073 10.553-20.958 21.115-41.916 31.511-62.863-37.499 0-74.837 0-112.336 0-0.161 0.47-0.314 1.101-0.631 1.571-33.874 67.909-67.592 135.657-101.622 203.566-11.656 23.321-24.735 45.689-40.806 66.338-8.982 11.506-18.75 22.059-30.719 30.249-16.541 11.184-34.975 17.494-54.513 20.958-14.809 2.679-29.779 3.464-44.749 3.464-36.077 0-72.165 0-108.241 0-0.941 0-2.051 0-2.994 0 0 28.837 0 57.195 0 85.712 1.101 0 2.202 0 3.155 0 39.392 0 78.784 0 118.172 0 10.244 0 20.488 0.161 30.571 0.792 17.642 0.941 34.975 4.095 51.677 9.922 28.987 10.244 51.521 28.047 65.385 55.933 7.089 14.178 11.028 29.309 12.916 45.058 0.631 4.565 0.792 8.982 1.262 13.869-1.423 0-2.524 0-3.625 0-97.218 0-194.427 0-291.641 0-0.792 0.631-2.051 0.792-3.155 0.792z" />
<glyph unicode="&#xe928;" glyph-name="next_1" d="M9.3 356.5v182.8h731.2l-274.2 274.4 91.4 91.4 457-457-456.8-457.2-91.6 91.4 274.2 274.2h-731.2z" />
<glyph unicode="&#xe929;" glyph-name="accept" d="M3.2 447.9l156.6 156.6 235-234.6 469.4 469.6 156.6-156.6-626-626.4-391.6 391.4z" />
<glyph unicode="&#xe92a;" glyph-name="mail" d="M896 784h-768c-70.6 0-128-57.4-128-128v-416c0-70.6 57.2-128 128-128h768c70.6 0 128 57.4 128 128v416c0 70.6-57.4 128-128 128zM64 616l224-168-224-168v336zM960 240c0-35.4-28.6-64-64-64h-768c-35.4 0-64 28.6-64 64l250.6 188 139.8-104.8c34.2-25.6 81-25.6 115.2 0l139.8 104.8 250.6-188zM960 280l-224 168 224 168v-336zM550.4 348.6c-22.8-17-54-17-76.6 0l-409.8 307.4c0 35.4 28.6 64 64 64h768c35.4 0 64-28.6 64-64l-409.6-307.4z" />
<glyph unicode="&#xe92b;" glyph-name="shop" d="M1023.993 649.601c0 17.399-3.601 30.399-8.999 44.8l-47.399 143.598c-3.801 11.802-14.8 19.599-27.201 19.599h-399.797c0 0-0.2 0-0.2 0h-456.798c-12.401 0-23.4-8.001-27.201-19.599l-47.199-142.6c-4.998-13.598-9.199-26.398-9.199-44.999 0-42.999 27.999-77.598 66-98.399v-417.2c0-50.401 47.598-96.399 99.801-96.399h699.597c51.998 0 97.601 44.999 97.601 96.399v416.597c0 0.998-0.2 1.801-0.2 2.799 35.402 21.001 61.201 54.4 61.201 95.401zM789.793 95.602h-124.199c0.2 1.202 0.399 2.399 0.399 3.601v259.401c0 15.199 13.798 28.598 29.401 28.598h66.2c15.199 0 27.8-13 27.8-28.598v-259.199c0-1.401 0.2-2.599 0.399-3.801zM905.593 134.8c0-19.799-19.998-39.198-40.201-39.198h-19c0.2 1.202 0.399 2.399 0.399 3.601v259.401c0 47.399-38.2 85.998-85.2 85.998h-66.2c-47 0-86.801-39.398-86.801-85.998v-259.199c0-1.202 0.2-2.399 0.399-3.601h-443.399c-20.601 0-42.4 20.198-42.4 39.198v397.197c9.199-1.401 18.402-2.2 27.6-2.2 49.998 0 96.798 21.4 126.798 47 27.401-23.999 70.2-49 121.799-49 42.4 0 86.801 22.801 114.8 47.598 27.001-24.398 69.198-47 111.199-47 51.2 0 93.8 24.602 121.001 48.401 27.6-23.999 72.2-47.399 126.598-47.399 10.8 0 21.599 1.202 32.399 3.2v-398zM873.192 587.198c-53 0-92.398 32.599-102.2 47.598-5.198 7.801-13.598 12.401-22.801 12.8s-17.998-3.801-23.799-11.199c-15.599-20.198-54.602-50.202-98.798-50.202-38.999 0-79.399 33.801-84.801 45.598-6.4 14.401-23.4 21.001-37.801 14.601-4.799-2.2-8.6-5.602-11.598-9.6 0 0 0 0 0 0-0.798-0.998-1.401-2.2-2-3.2-0.399-0.599-0.798-0.998-0.998-1.601-5.602-11.598-49.399-46.401-89.001-46.401-49.599 0-88.602 36.599-99.401 50.801-5.602 7.398-14.201 11.398-23.799 11.199-9.199-0.399-17.798-4.998-22.801-12.8-9.802-14.8-49.2-47.199-102.599-47.199-49 0-93.6 30-93.6 63.002 0 8.4 1.401 13.598 6.001 25.999l40.999 123.999h435.797c0 0 0.2 0 0.2 0h379.399l41.398-125.001c4.4-11.802 5.801-17.599 5.801-25.799-0.2-36-49.399-62.598-93.6-62.598zM469.195 444.398h-232.399c-30 0-54.4-24.398-54.4-54.4v-180.8c0-30 24.398-54.4 54.4-54.4h232.599c30 0 54.4 24.398 54.4 54.4v180.8c0 30-24.602 54.4-54.602 54.4zM466.397 212.003h-226.798v175.199h226.798v-175.199z" />
<glyph unicode="&#xe92c;" glyph-name="shop_t" d="M170 745.127c18.22 1.626 31.577 17.68 29.948 35.9-0.182 10.642 3.068 20.926 9.201 29.408 8.84 8.84 20.748 13.712 33.194 13.712h541.946c7.578-1.626 14.792-4.69 21.29-9.022 12.086-8.3 18.942-22.552 17.862-37.162 0-18.22 14.792-33.013 33.013-33.013v0c18.22 0 33.013 14.792 33.013 33.013 0.904 57.008-41.312 105.358-97.962 112.032h-552.588c-30.67-0.722-59.533-14.070-79.92-36.804-17.68-22.012-26.52-49.794-24.718-78.116 1.444-18.22 17.498-31.577 35.717-29.948zM972.814 578.434c1.080 11.006-3.246 22.012-11.364 29.408-9.744 10.642-80.64 89.304-88.76 98.32-6.49 7.936-15.696 13.172-25.798 14.792h-1.080c-6.49 0-644.416 0-660.652 0h-1.080c-11.19 1.444-22.37-2.888-29.588-11.546-8.118-9.022-70.18-78.116-84.432-92.908-12.45-15.33-19.306-34.28-19.482-53.944v-1.262c-1.080-32.295 18.76-61.522 49.253-72.346 8.84-5.412 18.942-8.479 29.408-8.479 20.386 1.444 39.51 10.466 53.58 25.258 14.974-14.434 34.456-23.092 55.206-24.354h0.722c20.386 1.080 39.51 9.562 53.944 23.996 15.33-14.070 35.178-22.552 55.928-23.814 2.166-0.361 4.15-0.54 6.316-0.54 19.306 2.35 37.162 11.364 50.693 25.616 14.615-14.434 33.916-23.274 54.484-24.894h3.246c19.846 1.080 38.606 9.744 52.136 24.354 14.070-14.434 33.013-23.092 53.222-24.354 2.524-0.361 5.057-0.722 7.578-0.722 18.402 1.626 35.542 10.284 47.81 24.17 15.156-13.897 34.456-22.012 54.842-23.274 20.748-0.904 40.772 7.214 55.024 22.37 14.434-13.53 33.194-21.648 53.040-22.37 1.984 0 3.783 0 5.594 0 19.306 0.722 37.526 9.38 50.334 23.996 12.808-14.434 30.852-23.274 50.152-24.17h2.706c22.188-1.262 43.66 7.578 58.634 23.996 15.156 21.108 21.648 47.264 18.037 73.069l0.361-0.361zM933.841 523.406c-9.744-10.284-23.814-15.514-37.884-14.252h-1.984c-3.246 0-20.748 1.262-39.692 26.52l-12.268 16.418-10.642-17.498c-8.118-13.712-22.188-23.092-38.066-25.258h-5.057c-17.14 0.54-32.836 9.562-41.676 24.17l-12.268 22.737-11.908-22.91c-8.118-14.252-23.092-23.455-39.51-23.996h-2.35c-17.14 0.904-33.013 9.744-42.574 23.996l-9.92 20.748-13.53-18.584c-6.316-8.658-23.996-26.877-37.706-26.877-1.080-0.182-2.166-0.182-3.068 0h-3.068c-17.498 0.904-33.558 10.466-42.574 25.616l-11.006 18.037-12.086-17.319c0 0-18.76-26.159-41.494-26.159h-1.626c-17.319 1.444-33.013 10.642-42.574 25.258l-9.744 17.14-12.808-14.974c-7.76-9.022-28.322-27.964-41.676-27.964h-3.968c-18.037 0.722-34.456 9.744-44.74 24.536l-10.642 21.29-13.172-19.664c-10.284-14.434-26.159-23.814-43.842-25.98-17.498 1.262-33.376 10.642-43.12 25.258l-10.642 17.319-12.086-16.236c-10.284-14.434-25.98-24.17-43.296-27.242-5.772 0-11.364 1.802-16.236 5.23l-1.984 1.626-2.888 0.361c-2.166 0.54-26.52 7.578-29.948 47.628 0.182 12.626 4.508 24.718 11.908 34.82 15.33 16.236 82.806 91.106 85.694 94.352l0.54 0.54c2.524 0.722 5.057 1.080 7.578 0.904h0.54c16.054 0 617.174 0 659.39 0 3.246-1.262 5.952-3.246 8.3-5.952 8.658-9.38 88.94-98.32 89.662-99.406l1.626-1.802c1.080-2.888 1.444-5.772 1.262-8.84v-2.166c2.524-18.22-1.626-36.622-11.728-51.96l0.54 0.54zM856.092 449.621v0c-18.22-0.182-33.013-14.974-32.836-33.194 0-2.35 1.080-242.648 1.080-302.188-1.444-20.386-16.054-37.344-35.9-42.034h-290.276v218.476c1.444 16.958-5.772 33.558-19.306 43.842-8.3 5.772-18.402 8.3-28.322 7.038-14.974 0-85.154 0-98.684 0-13.712 0.54-27.060-5.594-35.542-16.6-7.76-10.642-10.824-24.17-8.479-37.162v-214.507l-83.71 1.802c-13.53 6.49-22.552 19.482-23.996 34.28v302.004c-0.904 18.22-16.418 32.295-34.638 31.577-17.14-0.722-30.67-14.434-31.577-31.577v-306.694c3.068-44.922 34.28-82.806 77.758-94.534l3.246-0.722 158.938-3.428v269.708h58.093v-269.168h364.786l3.61 0.904c51.238 10.824 88.4 55.024 90.026 107.342 0 59.714-1.080 300.020-1.080 302.544-0.182 18.22-14.974 32.836-33.013 32.836l-0.182-0.54zM858.257 628.223h-694.392c-5.057 0-9.201-4.15-9.201-9.201s4.15-9.201 9.201-9.201v0h694.392c5.057 0 9.201 4.15 9.201 9.201s-3.968 9.201-9.201 9.201zM710.135 169.987c22.737 0 40.954 18.402 40.954 40.954v89.662c0 22.737-18.402 40.954-40.954 40.954h-89.662c-22.737 0-40.954-18.402-40.954-40.954v-89.304c0-22.737 18.402-40.954 40.954-40.954l89.662-0.361zM606.943 210.941v89.662c0 7.396 5.952 13.53 13.53 13.53v0h89.662c7.396 0 13.53-5.952 13.53-13.53v0-89.304c0-7.396-5.952-13.53-13.53-13.53v0h-89.662c-7.396 0-13.53 5.952-13.53 13.53v-0.361z" />
<glyph unicode="&#xe92d;" glyph-name="calender" d="M891.132 829.88h-140.787v36.788c0 12.031-9.798 21.832-21.832 21.832s-21.832-9.798-21.832-21.832v-36.788h-411.534l-1.029 37.305c-0.346 12.031-10.317 21.49-22.346 21.144s-21.49-10.317-21.144-22.346l0.856-36.269h-118.787c-12.031 0-21.832-9.798-21.832-21.832v-778.549c0-12.031 9.798-21.832 21.832-21.832h758.607c12.031 0 21.832 9.798 21.832 21.832v778.721c-0.173 12.031-9.971 21.832-22 21.832zM869.478 786.39v-121.881h-715.117v121.881h715.117zM154.361 51.331v569.686h715.117v-569.686h-715.117zM219.687 422.817h116.893c12.031 0 21.832 9.798 21.832 21.832v109.845c0 12.031-9.798 21.832-21.832 21.832h-116.893c-12.031 0-21.832-9.798-21.832-21.832v-109.845c0-12.031 9.798-21.832 21.832-21.832zM241.341 532.662h73.403v-66.355h-73.403v66.355zM336.58 189.031c12.031 0 21.832 9.798 21.832 21.832v109.845c0 12.031-9.798 21.832-21.832 21.832h-116.893c-12.031 0-21.832-9.798-21.832-21.832v-109.845c0-12.031 9.798-21.832 21.832-21.832h116.893zM241.341 298.703h73.403v-66.355h-73.403v66.355zM453.473 422.817h116.893c12.031 0 21.832 9.798 21.832 21.832v109.845c0 12.031-9.798 21.832-21.832 21.832h-116.893c-12.031 0-21.832-9.798-21.832-21.832v-109.845c0.173-12.031 9.798-21.832 21.832-21.832zM475.3 532.662h73.403v-66.355h-73.403v66.355zM453.473 189.031h116.893c12.031 0 21.832 9.798 21.832 21.832v109.845c0 12.031-9.798 21.832-21.832 21.832h-116.893c-12.031 0-21.832-9.798-21.832-21.832v-109.845c0.173-12.202 9.798-21.832 21.832-21.832zM475.3 298.703h73.403v-66.355h-73.403v66.355zM804.325 576.152h-116.893c-12.031 0-21.832-9.798-21.832-21.832v-109.845c0-12.031 9.798-21.832 21.832-21.832h116.893c12.031 0 21.832 9.798 21.832 21.832v109.845c-0.173 12.031-9.971 21.832-21.832 21.832zM782.489 466.307h-73.403v66.355h73.403v-66.355zM804.325 342.193h-116.893c-12.031 0-21.832-9.798-21.832-21.832v-109.845c0-12.031 9.798-21.832 21.832-21.832h116.893c12.031 0 21.832 9.798 21.832 21.832v109.845c-0.173 12.202-9.971 21.832-21.832 21.832zM782.489 232.521h-73.403v66.355h73.403v-66.355zM208.341 139.864h607.33v-43.49h-607.33v43.49z" />
<glyph unicode="&#xe92e;" glyph-name="calender_1" d="M425.273 368.819c15.903-0.341 31.806-0.341 47.709 0 12.722 0 23.097 10.545 22.927 23.268 0 0.341 0 0.503 0 0.833 0 7.87 0 15.396 0 22.927 0 7.365 0 14.729 0 22.094 0.663 12.722-9.036 23.438-21.756 24.101-0.503 0-1.174 0-1.669 0-15.562 0.341-31.137 0.341-46.706 0-12.382 0.17-22.763-9.883-22.927-22.264-0.503-16.073-0.503-32.303 0-48.372 0-12.382 9.883-22.435 22.435-22.604zM528.718 393.6v0c-0.833-12.893 9.036-23.93 21.923-24.777 0.663 0 1.344 0 1.836 0 15.396-0.341 30.632-0.341 46.030 0 12.722-0.17 23.097 10.043 23.438 22.763 0.503 15.903 0.503 31.806 0 47.709 0.17 12.552-10.043 22.927-22.763 22.927-0.17 0-0.17 0-0.341 0-15.903 0.341-31.806 0.341-47.709 0-12.382-0.17-22.435-10.204-22.435-22.604-0.341-7.87 0-15.903 0-23.77 0-7.365 0-14.9 0-22.264zM424.781 255.339c16.073-0.341 32.144-0.341 48.372 0 12.552 0.17 22.763 10.545 22.435 23.268 0 0 0 0.17 0 0.17 0 7.87 0 15.237 0 22.927 0.17 7.705 0.17 15.396 0.17 22.927 0.503 12.722-9.371 23.438-22.094 23.93-0.503 0-1.003 0-1.51 0-15.562 0.17-31.137 0.341-46.706 0-12.382 0.17-22.763-9.712-22.927-22.264-0.503-16.403-0.503-32.809 0-49.21 0.17-11.889 10.043-21.597 22.264-21.756zM473.493 235.252c-0.503 0-1.003 0-1.51 0-15.396 0.341-30.632 0.341-46.030 0-12.722 0.341-23.097-9.712-23.438-22.435 0 0 0-0.17 0-0.17-0.503-15.903-0.503-31.806 0-47.709-0.17-12.722 10.043-22.927 22.763-23.097 0.341 0 0.663 0 1.003 0 15.396-0.17 30.632-0.17 46.030 0 12.722-0.17 23.268 10.043 23.438 22.763 0 0.17 0 0.341 0 0.503 0 7.87 0 15.396 0 22.927 0 7.87 0 15.396 0 22.927 0.503 13.063-9.542 23.77-22.264 24.271zM550.982 141.841c0.341 0 0.663 0 0.833 0 7.87-0.17 15.237 0 22.927 0s15.237 0 22.927 0c12.552-0.663 23.438 9.036 23.93 21.756 0 0.341 0 0.663 0 1.003 0.503 15.903 0.503 31.636 0 47.539 0 12.722-10.204 23.097-23.097 23.097-0.17 0-0.503 0-0.663 0-15.237 0.17-30.632 0.17-45.871 0-12.722 0.341-23.268-9.712-23.608-22.264 0-0.503 0-1.174 0-1.669-0.17-15.237-0.17-30.632 0-45.871 0-12.722 10.043-23.268 22.604-23.608zM528.559 302.039c0-7.87 0-15.396 0-22.927-0.503-12.722 9.542-23.268 22.094-23.77 0.341 0 0.663 0 1.003 0 15.562-0.341 31.137-0.341 46.706 0 12.552-0.341 23.097 9.712 23.438 22.435 0 0.17 0 0.341 0 0.503 0.503 15.903 0.503 31.806 0 47.709 0 12.552-10.043 22.604-22.435 22.763-16.073 0.503-32.303 0.503-48.372 0-12.382-0.341-22.264-10.375-22.435-22.763-0.17-8.029 0-16.073 0-23.93v0zM298.065 255.506v0c16.566-0.503 32.98-0.503 49.375 0 12.057 0.17 21.923 10.043 21.923 22.264 0.341 8.198 0 16.403 0 24.612 0 7.87 0 15.396 0 22.927 0.341 12.552-9.712 23.097-22.264 23.438-0.341 0-0.663 0-1.174 0-15.396 0.341-30.632 0.341-46.030 0-12.382 0.663-22.927-8.877-23.608-21.261 0-0.341 0-0.663 0-1.003-0.663-16.403-0.503-32.809 0-49.21 0.341-12.057 9.883-21.597 21.756-21.756zM369.537 211.643v0c0.503 12.552-9.371 23.097-21.923 23.608-0.503 0-0.833 0-1.344 0-15.562 0.341-31.137 0.341-46.706 0-12.216 0.341-22.435-9.201-22.763-21.261-0.833-16.906-0.663-33.983 0-50.89 0.341-11.889 10.204-21.261 22.094-21.090 16.073-0.341 32.303-0.341 48.372 0 12.057 0.17 21.923 9.883 22.094 22.094 0.341 8.368 0 16.906 0 25.445 0.17 7.365 0.17 14.729 0.17 22.094zM655.279 392.256c-0.503-12.382 9.201-22.604 21.431-23.097 0.17 0 0.17 0 0.341 0 16.073-0.503 32.303-0.503 48.372 0 12.057-0.17 21.923 9.371 22.094 21.431 0 0.17 0 0.17 0 0.341 0.503 16.403 0.503 32.809 0 49.21-0.17 12.382-10.375 22.094-22.604 21.923 0 0-0.17 0-0.17 0-7.87 0-15.237 0-22.927 0s-15.903 0.17-23.77 0c-12.382 0-22.604-10.043-22.604-22.435 0-0.17 0-0.503 0-0.663-0.503-15.562-0.503-31.137-0.17-46.706zM725.915 348.573c-0.17 0-0.341 0-0.341 0-15.903 0.503-31.806 0.503-47.709 0-12.382 0-22.435-10.043-22.435-22.604 0-0.341 0-0.503 0-0.833-0.17-7.87 0-15.396 0-22.927l-0.341-0.17c0-7.87 0-15.396 0-22.927-0.503-12.382 9.201-22.927 21.597-23.438 0.503 0 1.174 0 1.669 0 15.396-0.341 30.632-0.341 46.030 0 12.382-0.503 22.763 8.877 23.268 21.261 0 0.503 0 1.003 0 1.344 0.503 16.073 0.503 32.303 0 48.372 0.17 12.057-9.712 21.923-21.756 21.923zM344.925 630.953c16.566 0 30.13 13.555 30.13 30.13v177.432c0 16.566-13.385 30.13-29.97 30.13s-30.13-13.385-30.13-29.97c0 0 0-0.17 0-0.17v-177.432c-0.17-16.566 13.223-30.13 29.97-30.13zM657.116 634.473c16.566 0 30.13 13.555 30.13 30.13 0 0 0 0 0 0v177.261c0 16.566-13.555 30.13-30.13 30.13s-30.13-13.555-30.13-30.13v-177.432c0.17-16.566 13.555-29.97 30.13-29.97zM615.597 712.307v59.428h-230.328v-59.428zM817.141 771.731h-118.174v-59.428h118.174c10.716 0 19.424-8.709 19.424-19.424v-109.977h-649.314v109.977c0 10.716 8.709 19.424 19.424 19.424h97.425v59.428h-97.425c-43.525-0.17-78.836-35.483-78.836-79.004v-589.716c0-43.695 35.483-79.004 79.004-79.004h610.314c43.695 0 79.004 35.483 79.004 79.004v589.716c0 43.525-35.483 79.004-79.004 79.004zM836.554 103.011c0-10.716-8.709-19.424-19.424-19.424h-610.314c-10.716 0-19.424 8.709-19.424 19.424v419.479h649.314v-419.479z" />
<glyph unicode="&#xe92f;" glyph-name="credit_card" d="M94.822 339.614h61.815c8.634 0 15.503 6.868 15.503 15.503s-6.868 15.503-15.503 15.503h-61.815c-8.634 0-15.503-6.868-15.503-15.503s6.868-15.503 15.503-15.503zM233.758 571.566h-123.433c-17.073 0-31.006-13.933-31.006-31.006v-92.624c0-17.073 13.933-31.006 31.006-31.006h123.433c17.073 0 31.006 13.933 31.006 31.006v92.624c0.196 17.073-13.737 31.006-31.006 31.006zM233.758 447.937h-123.433v92.624h123.433v-92.624zM202.949 355.116c0-8.634 6.868-15.503 15.503-15.503h139.132c8.634 0 15.503 6.868 15.503 15.503s-6.868 15.503-15.503 15.503h-139.132c-8.634 0-15.503-6.868-15.503-15.503zM681.965 370.619h-262.566c-8.634 0-15.503-6.868-15.503-15.503s6.868-15.503 15.503-15.503h262.762c8.634 0 15.503 6.868 15.503 15.503s-7.065 15.503-15.699 15.503v0zM94.822 215.984h386.196c8.634 0 15.503 6.868 15.503 15.503s-6.868 15.503-15.503 15.503h-386.196c-8.634 0-15.503-6.868-15.503-15.503s6.868-15.503 15.503-15.503zM450.209 277.799c8.634 0 15.503 6.868 15.503 15.503s-6.868 15.503-15.503 15.503h-31.006c-8.634 0-15.503-6.868-15.503-15.503s6.868-15.503 15.503-15.503h31.006zM527.526 277.799c8.634 0 15.503 6.868 15.503 15.503s-6.868 15.503-15.503 15.503h-31.006c-8.634 0-15.503-6.868-15.503-15.503s6.868-15.503 15.503-15.503h31.006zM620.15 246.989c0-34.145 27.473-61.815 61.422-61.815 14.129 0 27.866 4.71 38.855 13.737 26.492-21.39 65.543-17.269 86.933 9.223s17.269 65.543-9.223 86.933c-22.764 18.25-55.143 18.25-77.71 0-26.492 21.39-65.347 17.269-86.737-9.223-8.634-10.989-13.54-24.726-13.54-38.855zM790.092 246.989c0-17.073-13.933-31.006-31.006-31.006-7.457 0-14.718 2.747-20.212 7.653 6.28 14.914 6.28 31.594 0 46.508 5.691 4.906 12.755 7.653 20.409 7.653 17.073 0 30.809-13.737 30.809-30.809zM707.672 264.258v0c6.868-10.401 6.868-23.745 0-34.145-5.691-8.634-15.307-13.933-25.707-13.737-17.073 1.374-29.828 16.484-28.258 33.557 1.177 15.11 13.148 27.081 28.258 28.258 10.401 0 20.016-5.298 25.707-13.933v0zM48.51 138.862h143.842l49.256-91.839c5.298-10.008 15.895-16.288 27.277-16.288 5.298 0 10.401 1.374 14.914 3.729l189.566 104.398h378.346c17.073 0 31.006 13.933 31.006 31.006v432.508c0 17.073-13.933 31.006-31.006 31.006h-290.432l243.335 132.264 22.567-41.014-82.812-46.901c-7.065-4.71-9.027-14.325-4.317-21.586 4.317-6.476 12.559-8.634 19.624-5.298l82.42 46.705 133.442-242.55-72.608-40.032c-7.85-3.336-11.578-12.559-8.046-20.409 3.336-7.85 12.559-11.578 20.409-8.046 0.981 0.392 1.766 0.785 2.551 1.374l72.412 39.64c7.261 3.729 12.559 10.401 14.914 18.25s1.57 16.484-2.355 23.745l-208.601 379.524c-8.046 14.914-26.688 20.605-41.799 12.559 0 0-0.196 0-0.196-0.196l-324.97-178.969c-7.065-4.71-9.027-14.522-4.121-21.586 4.121-6.28 12.167-8.438 19.035-5.495l324.97 178.576 22.96-41.21-296.711-161.307c-7.457-4.121-10.204-13.737-5.887-21.194 2.747-4.906 7.85-7.85 13.344-7.85h351.069v-432.704h-803.397v432.704h386.196c8.634 0 15.503 6.868 15.503 15.503s-6.868 15.503-15.503 15.503h-386.196c-17.073 0.196-31.006-13.737-31.006-31.006v-432.704c0-17.073 13.933-30.809 31.006-30.809zM269.081 61.349l-41.406 77.514h181.912l-140.506-77.514z" />
<glyph unicode="&#xe930;" glyph-name="close" d="M512 10c-116.919 0-227.024 45.544-309.744 128.256s-128.256 192.824-128.256 309.744c0 116.919 45.544 227.024 128.256 309.744s192.824 128.256 309.744 128.256c116.919 0 227.024-45.544 309.744-128.256s128.256-192.824 128.256-309.744c0-116.919-45.544-227.024-128.256-309.744s-192.824-128.256-309.744-128.256zM512 844.12c-218.48 0-396.12-177.64-396.12-396.12s177.64-396.12 396.12-396.12c218.48 0 396.12 177.64 396.12 396.12s-177.64 396.12-396.12 396.12zM525.088 431.804l172.76 172.928-29.144 29.144-172.76-172.76-172.928 172.76-29.144-29.144 172.76-172.928-172.76-172.76 29.144-29.144 172.928 172.76 172.76-172.76 29.144 29.144z" />
<glyph unicode="&#xe931;" glyph-name="plus" d="M559.843 493.613h144.379v-84.369h-144.379v-164.44h-89.678v164.613h-145.069v84.369h145.069v153.813h89.678v-153.986zM818.078 754.078c-81.792 81.619-190.511 126.722-306.078 126.722s-224.286-45.094-306.078-126.722-126.722-190.511-126.722-306.078 45.094-224.286 126.722-306.078c81.792-81.792 190.511-126.722 306.078-126.722s224.286 45.094 306.078 126.722c81.792 81.792 126.722 190.511 126.722 306.078s-44.93 224.286-126.722 306.078zM512 859.024c226.69 0 411.025-184.337 411.025-411.025s-184.337-411.025-411.025-411.025-411.025 184.337-411.025 411.025c0 226.69 184.337 411.025 411.025 411.025z" />
<glyph unicode="&#xe932;" glyph-name="plus_1" d="M512 9.8c-116.976 0-227.086 45.521-309.887 128.313s-128.313 192.902-128.313 309.887c0 116.976 45.521 227.086 128.313 309.887s192.902 128.313 309.887 128.313c116.976 0 227.086-45.521 309.887-128.313s128.313-192.729 128.313-309.887c0-116.976-45.521-227.086-128.313-309.887s-192.902-128.313-309.887-128.313zM512 841.544c-216.951 0-393.535-176.584-393.535-393.535s176.584-393.535 393.535-393.535c216.951 0 393.535 176.584 393.535 393.535s-176.584 393.535-393.535 393.535zM524.366 704.325h-24.049v-246.327h-246.327v-24.049h246.327v-246.327h24.049v246.327h246.327v24.049h-246.327v246.327z" />
<glyph unicode="&#xe933;" glyph-name="question" d="M501.027 344.089c-0.346 17.665 2.571 35.323 8.576 52.124 8.576 20.234 23.494 36.868 42.526 47.671 7.203 4.462 14.406 8.915 21.774 13.204 24.86 13.887 42.18 38.41 46.987 66.53 6.174 23.321 0.683 48.181-14.581 67.049-9.604 12.002-21.609 21.774-35.323 28.639-33.784 18.859-74.762 19.032-108.715 0.346-33.265-16.974-54.020-51.268-53.845-88.649 0.346-8.059-6.001-14.741-14.060-14.916-0.173 0-0.346 0-0.515 0-7.886 0.173-14.233 6.684-14.060 14.581 0 0.346 0 0.515 0 0.856 0 3.599 0.173 7.203 0.515 10.973 4.289 49.21 36.525 91.736 82.821 109.229 57.442 22.975 123.116 6.857 163.248-39.954 18.522-20.407 27.779-47.671 25.379-75.108-2.571-40.982-24.35-78.195-58.817-100.487-9.604-6.347-19.378-12.521-29.149-18.522-20.407-12.348-33.092-34.467-33.265-58.298-0.515-10.632 0-21.263 0-31.893 0.173-7.886-6.001-14.406-13.887-14.581-7.376-0.173-13.713 5.318-14.581 12.685-0.515 5.655-0.683 12.002-1.029 18.522zM544.409 257.662c-0.173-15.772-13.031-28.466-28.807-28.293s-28.466 13.031-28.293 28.807c0.173 15.772 13.031 28.466 28.807 28.293v0c15.609-0.346 28.12-13.204 28.293-28.807zM818.078 754.078c-81.792 81.619-190.511 126.722-306.078 126.722s-224.286-45.094-306.078-126.722-126.722-190.511-126.722-306.078 45.094-224.286 126.722-306.078c81.792-81.792 190.511-126.722 306.078-126.722s224.286 45.094 306.078 126.722c81.792 81.792 126.722 190.511 126.722 306.078s-44.929 224.286-126.722 306.078zM512 859.023c226.69 0 411.026-184.337 411.026-411.026s-184.337-411.026-411.026-411.026-411.026 184.337-411.026 411.026c0 226.69 184.337 411.026 411.026 411.026z" />
<glyph unicode="&#xe934;" glyph-name="tick" d="M811.85 747.85c-80.127 79.955-186.64 124.15-299.85 124.15s-219.723-44.175-299.85-124.15-124.15-186.64-124.15-299.85 44.175-219.723 124.15-299.85c80.127-80.127 186.64-124.15 299.85-124.15s219.723 44.176 299.85 124.15c80.127 80.127 124.15 186.64 124.15 299.85s-44.016 219.723-124.15 299.85zM511.991 850.656c222.083 0 402.668-180.593 402.668-402.667s-180.593-402.668-402.668-402.668-402.667 180.593-402.667 402.668c0 222.083 180.593 402.668 402.667 402.668zM748.684 614.304c-5.706 5.706-13.277 8.903-21.333 8.903s-15.618-3.197-21.332-8.731l-272.133-268.787-115.739 114.731c-11.756 11.756-30.914 11.756-42.67 0-5.706-5.706-8.903-13.277-8.903-21.332s3.197-15.618 8.903-21.332l137.084-136.077c5.878-5.878 13.601-8.903 21.332-8.903s15.45 2.853 21.333 8.731l293.136 290.111c5.878 5.706 9.075 13.276 9.075 21.332s-3.025 15.618-8.731 21.333z" />
<glyph unicode="&#xe935;" glyph-name="back" d="M942.543 470.598h-741.302l203.036 203.036-45.366 45.366-257.916-257.916 0.51-0.34-20.048-20.048 263.696-263.696 45.366 45.366-183.838 184.008h735.862z" />
<glyph unicode="&#xe936;" glyph-name="Next_2" d="M101.64 426.683h706.592l-193.8-193.8 43.28-43.28 245.896 245.896-0.32 0.32 19.073 19.073-251.344 251.504-43.28-43.28 175.368-175.368h-701.464v-61.072z" />
<glyph unicode="&#xe937;" glyph-name="tick_t" d="M889.396 709.504c-11.917 11.917-31.236 11.917-43.153 0 0 0 0 0 0 0l-463.412-458.128-205.074 203.413c-11.917 11.917-31.236 11.917-43.153 0s-11.917-31.236 0-43.153l226.801-225.14c11.917-11.917 31.236-11.917 43.153 0 0 0 0 0 0 0l484.838 479.857c11.917 11.917 11.917 31.236 0 43.153 0 0 0 0 0 0z" />
<glyph unicode="&#xe938;" glyph-name="downarrow" d="M872.915 609.862l-25.64 26.060-334.010-326.962-336.54 329.64-25.64-26.2 347.81-340.63 14.090-14.37z" />
<glyph unicode="&#xe939;" glyph-name="minimize" d="M285.224 460.526l454.185 6.284 0.447-32.226-454.185-6.284-0.447 32.226z" />
<glyph unicode="&#xe93a;" glyph-name="truck" d="M554.854 308.344c-1.6-10.401-3.8-20.802-6.601-30.803-12.601-36.804-49.205-59.606-87.809-55.005-38.604 4.4-68.607 35.603-71.607 74.407-0.8 9.401-3.6 12.201-12.801 11.401-9.601-0.6-19.202-0.2-28.603 1-19.202 2.4-33.403 19.002-32.803 38.404-0.2 95.609-0.2 191.219 0 286.828 0 23.602 17.402 39.404 42.404 39.404 60.806 0.2 121.612 0 182.418 0h195.219c30.803 0 45.404-15.001 45.404-45.804v-41.604h12.601c34.803 0 69.607-0.6 104.61 0.4 10.801 0.8 21.202-3.8 27.803-12.401 16.402-20.602 33.003-41.004 48.605-62.206 15.001-20.202 29.203-41.204 43.004-62.206 4-6.601 6.401-14.001 6.801-21.602 0.8-27.603 0.4-55.405 0.4-83.008-0.2-24.802-12.401-37.204-37.404-37.404h-16.602c-1-29.203-10.801-52.805-34.003-70.007-15.602-11.601-34.803-17.402-54.005-16.002-43.404 2.6-70.807 32.203-78.408 85.408-3.8-0.2-7.401 0.2-11.201 0.8-24.002 5.601-47.805 0-71.807 0-50.805-0.2-101.61 0-152.415 0h-13.201zM548.454 642.177h-88.609c-33.203 0-66.006-0.2-99.21 0.2-9.801 0-13.801-3-13.801-13.601 0.4-91.409 0.4-182.618 0-274.027 0-10.401 4-14.001 13.801-13.801 9.201 0.4 18.602-0.6 27.603 0.4 4.6 0.6 8.801 3 11.601 6.601 35.003 52.605 105.81 52.805 141.214 0.4 3-4 7.601-6.401 12.601-6.601 59.806-0.6 119.412-0.4 179.218-0.4 14.001 0 15.201 1.4 15.201 15.201v270.826c0 14.001-1.2 15.201-15.201 15.201-61.606-0.2-123.012-0.4-184.418-0.4v0zM782.276 340.947c7.201-0.4 14.401-0.2 21.602 0.4 4.6 0.6 8.601 3 11.601 6.401 35.603 53.005 106.010 52.805 141.614-0.6 1.6-2.4 4.2-5.601 6.601-5.801 8.801-0.8 17.602-0.4 26.603-0.4v62.206h-12.001c-27.803 0-55.405-0.2-83.208 0.2-6.801 0-13.401 1-20.002 3-29.803 9.801-45.404 39.604-39.404 76.007 4.4 28.603 28.803 49.805 57.806 50.005 9.201 0.4 18.802 0 28.603 0-6.801 16.402-15.201 23.802-33.003 22.802-32.003-1.8-64.006-0.6-96.009-0.6-3.8 0-7.601-0.4-11.401-0.6 0.6-71.207 0.6-141.414 0.6-213.021zM936.091 304.944c0 27.603-22.602 49.805-50.205 49.805s-49.805-22.602-49.805-50.205c0-27.603 22.602-49.805 50.205-49.805 27.603 0.2 50.005 22.602 49.805 50.205v0zM520.451 303.544c0.4 27.603-21.402 50.205-49.005 50.605s-50.205-21.402-50.605-49.005c-0.4-27.203 21.002-49.805 48.205-50.605 27.403-1 50.405 20.202 51.405 47.605 0 0.6 0 1 0 1.4v0zM987.896 435.557c-15.201 22.002-29.003 42.004-43.004 61.806-2.2 1.8-4.8 2.6-7.601 2.4-14.601 0.2-29.003 0.6-43.604 0-17.202-0.8-26.003-12.601-25.803-33.403 0.2-18.802 9.801-30.203 26.403-30.803 12.801-0.4 25.603-0.2 38.204-0.2 17.602 0.2 35.203 0.2 55.405 0.2zM148.414 501.563h129.013c9.201 0 16.202-2.8 18.802-12.201 2.6-8.001-2-16.602-10.001-19.202-1.6-0.6-3.2-0.8-5-0.8-88.609-0.4-177.017-0.2-265.626 0-8.401-0.2-15.402 6.401-15.602 15.001 0 0.6 0 1.2 0 1.8 0.4 9.001 7.801 16.002 16.802 15.602 0.4 0 1 0 1.4-0.2 43.404 0.2 86.808 0 130.213 0zM193.819 584.171c28.003 0 56.205 0.2 84.208 0 14.601-0.2 22.802-11.201 17.602-23.002-4-8.401-11.401-9.601-19.802-9.601h-167.216c-11.801 0.4-18.802 6.001-18.802 15.802-0.2 10.201 6.801 16.602 18.802 16.802 28.403 0.2 56.806 0 85.208 0zM193.419 418.755h84.208c12.401 0 19.402-5.801 19.402-16.202 0-10.001-7.001-16.202-19.602-16.202-56.406-0.2-113.011 0-169.217 0-8.801-1.2-17.002 5.201-18.002 14.001 0 0.8-0.2 1.6-0.2 2.4 0 10.001 6.601 16.002 18.402 16.002h85.008zM562.855 492.162l-59.006 58.606c-1.6 1.6-3 3-4.4 4.4-7.001 6.001-7.801 16.402-1.8 23.402 0 0 0.2 0.2 0.2 0.2 6.001 6.601 16.202 7.201 22.802 1.2 0.6-0.6 1.2-1.2 1.8-1.8 20.002-19.602 39.804-39.404 59.606-59.406 5-5 10.201-10.001 15.001-15.201 6.601-6.001 7.201-16.402 1-23.002-0.2-0.4-0.6-0.6-0.8-0.8-25.002-25.603-50.405-50.805-76.007-76.007-6.201-6.401-16.402-6.601-22.802-0.4 0 0-0.2 0.2-0.2 0.2-6.401 6.601-6.201 17.002 0.4 23.202 0.2 0.2 0.4 0.4 0.6 0.6 18.802 19.002 37.604 37.804 56.406 56.606 1.8 2.4 3.8 4.8 7.201 8.201zM662.665 492.762c-20.202 19.802-40.204 39.004-60.006 58.206-2.4 2.2-4.6 4.6-6.601 7.001-5.401 6.601-4.6 16.402 1.8 22.202 5.801 5.801 15.201 6.001 21.202 0.2 0 0 0 0 0.2-0.2 26.003-25.603 52.005-51.405 77.608-77.608 6.001-5.401 6.601-14.601 1.2-20.602-0.4-0.4-0.8-0.8-1.2-1.2-25.402-26.003-51.005-51.605-76.808-77.008-6.201-6.401-16.202-6.401-22.602-0.2-0.2 0.2-0.2 0.2-0.4 0.4-6.201 6.401-6.001 16.602 0.4 22.802 0.4 0.4 0.6 0.6 1 0.8 18.202 18.602 36.604 36.804 55.005 55.205 2.8 2.6 5.201 5.601 9.201 10.001zM464.045 491.362c-20.002 19.802-38.804 38.204-57.606 56.606-2.6 2.6-5.201 5-7.401 7.601-6.801 6.201-7.201 16.802-1 23.602 0 0 0.2 0.2 0.2 0.2 6.401 6.401 16.802 6.201 23.002-0.2 0.2-0.2 0.6-0.6 0.8-0.8 10.801-10.201 21.202-21.002 31.603-31.603 14.001-14.001 28.203-28.003 42.004-42.204 8.801-9.201 9.001-17.202 0.4-26.003-24.602-24.802-49.205-49.205-73.807-73.807-5.601-7.001-15.802-8.001-22.802-2.4s-8.001 15.802-2.4 22.802c0.8 1 1.6 1.8 2.6 2.4 21.002 21.202 42.004 41.804 64.406 63.806zM886.887 288.742c-8.601-0.4-16.002 6.401-16.202 15.001-0.4 8.601 6.401 16.002 15.001 16.202 8.601 0.4 16.002-6.401 16.202-15.001 0-0.2 0-0.2 0-0.4 0.4-8.401-6.401-15.402-15.001-15.802zM486.448 304.344c-0.2-8.601-7.201-15.602-16.002-15.402-8.601 0.2-15.602 7.201-15.402 16.002 0.2 8.601 7.201 15.602 16.002 15.402 0 0 0.2 0 0.2 0 8.401-0.2 15.201-7.201 15.201-16.002z" />
<glyph unicode="&#xe93b;" glyph-name="checkedbox" d="M721.61-63.999h-419.22c-152.151 0-276.126 123.774-276.126 276.126v471.748c0 152.352 123.774 276.126 276.126 276.126h419.22c152.352 0 276.126-123.774 276.126-276.126v-471.95c0.201-152.151-123.975-275.925-276.126-275.925zM302.39 932.227c-136.855 0-248.151-111.296-248.151-248.151v-471.95c0-136.855 111.296-248.151 248.151-248.151h419.22c136.855 0 248.151 111.296 248.151 248.151v471.748c0 136.855-111.296 248.151-248.151 248.151l-419.22 0.201zM827.472 653.284c0 0 0 0 0 0v0c-3.22 3.22-7.447 5.031-12.075 5.031s-8.855-1.811-12.075-5.031l-372.327-372.327-156.176 155.975c-6.642 6.642-17.509 6.642-24.151 0-3.22-3.22-5.031-7.447-5.031-12.075s1.811-8.855 5.031-12.075l168.252-168.252c3.22-3.22 7.447-5.031 12.075-5.031s8.855 1.811 12.075 5.031l384.604 384.604c3.22 3.22 5.031 7.447 5.031 12.075-0.201 4.629-2.013 8.855-5.233 12.075z" />
<glyph unicode="&#xe93c;" glyph-name="dots" d="M576.115 658.89c0-35.41-28.705-64.115-64.115-64.115s-64.115 28.705-64.115 64.115c0 35.41 28.705 64.115 64.115 64.115s64.115-28.705 64.115-64.115zM576.115 448.541c0-35.41-28.705-64.115-64.115-64.115s-64.115 28.705-64.115 64.115c0 35.41 28.705 64.115 64.115 64.115s64.115-28.705 64.115-64.115zM576.115 237.111c0-35.41-28.705-64.115-64.115-64.115s-64.115 28.705-64.115 64.115c0 35.41 28.705 64.115 64.115 64.115s64.115-28.705 64.115-64.115z" />
<glyph unicode="&#xe93d;" glyph-name="orders_1" d="M782.966 15.969c-0.35 0-0.52 0-0.872 0h-540.182c-15.68-0.176-30.312 5.75-41.632 16.551-11.153 10.976-17.415 25.608-17.768 41.285v655.672c0.52 32.4 27.176 58.353 59.4 57.832h130.992v-37.624h278.192v37.624h130.992c15.68 0.176 30.312-5.576 41.632-16.551 11.153-10.976 17.592-25.608 17.768-41.285v-655.672c-0.176-15.68-6.617-30.312-17.768-41.285-10.976-10.624-25.432-16.551-40.76-16.551zM241.566 56.381h541.048c4.88-0.176 9.408 1.744 12.888 5.224s5.4 8.016 5.576 12.888v654.455c-0.176 4.88-2.088 9.584-5.576 12.888s-8.016 5.224-12.888 5.048h-91.104v-1.214c0-20.032-16.376-36.408-36.408-36.408h-286.2c-20.032 0-36.408 16.376-36.408 36.408v1.214h-91.104c-9.928 0.176-18.288-7.84-18.464-17.944v-654.624c0.176-4.88 2.088-9.408 5.576-12.888 3.482-3.312 8.016-5.224 13.064-5.048v0zM652.318 709.613h-280.456c-21.6 0-39.192 17.592-39.192 39.192v37.104c0 21.6 17.592 39.192 39.192 39.192h74.384c0.35 1.568 0.52 3.136 1.048 4.704l0.176 0.52c9.408 35.536 45.986 56.787 81.521 47.552 25.784-6.792 44.42-27.696 49.12-52.95h74.384v-15.504l0.176 15.504c10.451-0.176 20.208-4.352 27.52-11.672 7.319-7.488 11.32-17.415 11.32-27.872v-36.408c0-21.776-17.592-39.368-39.192-39.368zM373.078 750.029h278.016v34.488h-112.357v27.52c0.176 12.544-8.016 23.688-20.208 26.824-13.936 3.656-28.392-4.704-32.224-18.64-0.52-2.264-0.872-4.352-0.872-6.617v-28.918h-112.357v-34.664zM558.95 811.693v0 0zM465.23 814.133v0 0zM322.39 596.389l1.392-0.35 392.641 0.35c9.584 2.616 15.504 12.544 13.24 22.296-1.568 6.792-6.792 12.017-13.584 13.584l-1.214 0.35-392.288-0.35c-9.584-2.616-15.68-12.717-13.24-22.296 1.392-6.448 6.448-11.496 13.064-13.584zM716.599 390.141l-1.392 0.35-392.641-0.35c-9.584-2.616-15.68-12.717-13.24-22.296 1.568-6.448 6.448-11.496 13.064-13.416l1.392-0.35 392.641 0.35c9.584 2.616 15.68 12.717 13.24 22.296-1.392 6.272-6.448 11.32-13.064 13.416zM322.39 478.109l1.392-0.35 392.641 0.35c9.584 2.616 15.68 12.717 13.24 22.296-1.568 6.448-6.448 11.496-13.064 13.416l-1.392 0.35-392.641-0.35c-9.584-2.616-15.68-12.717-13.24-22.296 1.392-6.272 6.448-11.32 13.064-13.416zM716.070 271.685l-1.214 0.35-392.288-0.35c-9.584-2.616-15.68-12.717-13.24-22.296 1.568-6.448 6.448-11.496 13.064-13.416l1.392-0.35 392.641 0.35c9.584 2.616 15.68 12.544 13.24 22.296-1.392 6.617-6.617 11.848-13.584 13.416zM550.589 153.411l-1.392 0.35h-225.584l-1.214-0.35c-9.584-2.616-15.68-12.717-13.24-22.296 1.568-6.448 6.448-11.496 13.064-13.416l1.392-0.35h225.408l1.214 0.35c9.584 2.616 15.68 12.717 13.24 22.296-1.392 6.272-6.448 11.496-12.888 13.416z" />
<glyph unicode="&#xe93e;" glyph-name="TimeSlots" d="M853.168 770.774h-53.52v66.39c0 10.54-8.7 19.23-19.23 19.23s-19.23-8.7-19.23-19.23v-66.39h-475.297v66.39c0 10.54-8.7 19.23-19.23 19.23s-19.23-8.7-19.23-19.23v-66.39h-76.76c-36.29 0-65.726-29.43-65.726-65.726v-599.554c0-36.29 29.6-65.89 65.89-65.89h682.34c36.29 0 65.89 29.6 65.89 65.89v599.22c-0.17 36.29-29.6 65.89-65.89 66.060zM143.068 704.714c0 15.22 12.38 27.592 27.592 27.592h76.76v-66.39c0-10.54 8.7-19.23 19.23-19.23s19.23 8.7 19.23 19.23v66.23h475.297v-66.39c0-10.54 8.7-19.23 19.23-19.23s19.23 8.7 19.23 19.23v66.39h53.35c15.22 0 27.592-12.38 27.592-27.592v-599.22c0-15.22-12.38-27.592-27.592-27.592h-682.34c-15.22 0-27.592 12.38-27.592 27.592v599.39zM245.918 511.717h534.33c10.54 0 19.23 8.7 19.23 19.23s-8.7 19.23-19.23 19.23h-534.33c-10.54 0-19.23-8.7-19.23-19.23s8.7-19.23 19.23-19.23zM780.418 425.587h-534.5c-10.54 0-19.23-8.7-19.23-19.23s8.7-19.23 19.23-19.23h534.33c10.54 0 19.23 8.7 19.23 19.23s-8.53 19.23-19.067 19.23zM552.138 301.164h-306.22c-10.54 0-19.23-8.7-19.23-19.23s8.7-19.23 19.23-19.23h306.22c10.54 0 19.23 8.7 19.23 19.23s-8.7 19.23-19.23 19.23z" />
<glyph unicode="&#xe93f;" glyph-name="search" d="M678.808 288.932c64.528 61.92 104.712 149.064 104.712 245.6 0 185.068-147.672 335.696-331.696 340.392-2.96 0-5.912 0.176-8.872 0.176s-5.912 0-8.872-0.176c-181.064-4.52-327-150.456-331.52-331.52 0-2.96-0.176-5.912-0.176-8.872s0-5.912 0.176-8.872c4.696-184.024 155.328-331.696 340.392-331.696 78.616 0 150.976 26.614 208.72 71.488l244.552-244.552 25.392 25.392-242.816 242.64zM442.944 236.236c-162.111 0-294.128 129.408-298.128 290.648 0 2.608-0.176 5.045-0.176 7.656s0 5.216 0.176 7.656c4 158.632 131.84 286.472 290.472 290.472 2.608 0 5.045 0.176 7.656 0.176s5.216 0 7.656-0.176c161.24-4 290.648-136.016 290.648-298.128 0-164.72-133.584-298.303-298.303-298.303z" />
<glyph unicode="&#xe940;" glyph-name="hours" d="M118.439 628.194l-38.395 13.092c0.53 1.59 14.331 41.401 54.846 90.233 36.798 44.406 103.855 105.796 214.784 145.609l13.801-38.216c-195.144-70.237-244.68-209.3-245.038-210.711zM905.563 628.194c-0.179 0.351-12.741 35.559-49.009 79.082-33.439 39.985-94.652 95.361-196.029 131.808l13.801 38.216c110.931-39.985 177.981-101.198 214.784-145.609 40.336-48.83 54.137-88.463 54.846-90.233l-38.395-13.271zM368.431 198.808l-24.415 32.551 171.263 129.151v206.466h40.694v-226.639zM518.812 18.7c-103.146 0-199.92 40.164-272.812 113.051s-113.051 169.845-113.051 272.812c0 103.146 40.164 199.92 113.051 272.812s169.845 113.051 272.812 113.051c103.146 0 199.92-40.164 272.812-113.051s113.051-169.845 113.051-272.812c0-103.146-40.164-199.92-113.051-272.812s-169.666-113.051-272.812-113.051zM518.812 749.739c-190.368 0-345.176-154.805-345.176-345.176s154.805-345.176 345.176-345.176c190.368 0 345.176 154.805 345.176 345.176s-154.805 345.176-345.176 345.176z" />
<glyph unicode="&#xe941;" glyph-name="user_3" d="M512 801c-93.376 0-169.138-75.762-169.138-169.138s75.762-169.138 169.138-169.138 169.138 75.762 169.138 169.138-75.762 169.138-169.138 169.138zM512 493.552c-76.366 0-138.31 61.944-138.31 138.31s61.944 138.31 138.31 138.31 138.31-61.797 138.31-138.31c0-76.366-61.944-138.31-138.31-138.31zM900.070 99.256c-23.538 194.79-190.245 341.461-388.070 341.461-197.68 0-364.539-146.822-388.070-341.461l-0.46-4.256h777.060l-0.46 4.256zM162.951 122.334c23.232 164.58 173.080 288.324 349.808 288.324s326.73-123.744 349.966-288.324h-699.774z" />
</font>
</defs>
</svg>
