<svg xmlns="http://www.w3.org/2000/svg" width="74.766" height="29.441" viewBox="0 0 74.766 29.441">
  <g id="Group_757" data-name="Group 757" transform="translate(-180.261 -172.453)">
    <path id="Path_928" data-name="Path 928" d="M176.418,317.809c-.045.246-.1.491-.135.738-.336,2.124-.659,4.25-1.01,6.371-.109.66-.294.774-.964.774h-.859a1.3,1.3,0,0,1-1.459-1.076c-.377-1.354-.721-2.717-1.058-4.082s-.656-2.756-.974-4.137a2.568,2.568,0,0,1-.09-.736c.008-.116.177-.314.275-.316a8.345,8.345,0,0,1,1.561.074,1.309,1.309,0,0,1,1.128,1.208c.116.9.2,1.813.3,2.719.13,1.128.269,2.255.4,3.383.024.2.041.409.062.614l.136.018c.062-.268.141-.533.185-.8.22-1.365.442-2.73.64-4.1.123-.854.22-1.714.3-2.574.03-.334.188-.532.487-.531a12.366,12.366,0,0,1,1.877.1,1.389,1.389,0,0,1,1.118,1.312c.159.956.263,1.921.372,2.884.133,1.177.246,2.357.37,3.535,0,.029.035.054.085.128.054-.081.115-.133.126-.194q.44-2.5.869-5c.143-.826.286-1.653.417-2.481a.325.325,0,0,1,.386-.319,5.721,5.721,0,0,1,1.162.107c.833.239,1.047.643.867,1.492a68.364,68.364,0,0,1-2.194,7.99c-.251.734-.316.776-1.094.776-.239,0-.478-.008-.716,0a1.484,1.484,0,0,1-1.68-1.485c-.185-1.337-.3-2.683-.449-4.025-.087-.784-.185-1.568-.278-2.351Z" transform="translate(32.598 -129.551)" fill="#fff"/>
    <path id="Path_929" data-name="Path 929" d="M398.4,327.748c.1-.138.192-.281.3-.413a2.254,2.254,0,0,1,1.5-.856,3.594,3.594,0,0,1,1.889.15,1.854,1.854,0,0,1,1.1,1.649,12.168,12.168,0,0,1-.12,2.97c-.062.589-.106,1.18-.152,1.771-.032.414-.033.832-.094,1.241-.018.118-.19.3-.294.3a5.7,5.7,0,0,1-1.237-.083.935.935,0,0,1-.719-.948c.027-.781.1-1.561.153-2.342.045-.71.1-1.42.114-2.13a.748.748,0,0,0-.771-.768,1.318,1.318,0,0,0-1.57,1.07,12.5,12.5,0,0,0-.444,2.109c-.117.867-.155,1.745-.233,2.618-.035.4-.139.5-.533.488a5.558,5.558,0,0,1-.741-.058.994.994,0,0,1-.987-1.117c.027-1.03.119-2.059.185-3.088.025-.379.06-.757.086-1.135.052-.757.105-1.514.149-2.272.013-.23.092-.35.345-.335a7.242,7.242,0,0,1,.962.035,1.142,1.142,0,0,1,1,1.141Z" transform="translate(-148.214 -138.439)" fill="#fff"/>
    <path id="Path_930" data-name="Path 930" d="M356.165,327.812c.21-.254.349-.432.5-.6a2.751,2.751,0,0,1,2.646-.755c1.179.158,1.694.724,1.73,2.072.032,1.175-.118,2.355-.192,3.532-.045.71-.115,1.419-.146,2.129-.011.243-.112.377-.326.37a6.586,6.586,0,0,1-1.228-.122.86.86,0,0,1-.718-.928c.031-.817.113-1.631.166-2.447.042-.651.107-1.3.1-1.954a.784.784,0,0,0-.893-.833c-1.014.021-1.32.4-1.581,1.456a29.223,29.223,0,0,0-.466,3.224c-.058.445-.076.9-.149,1.338a.4.4,0,0,1-.281.261,5.319,5.319,0,0,1-1.128-.09.936.936,0,0,1-.784-1.034c.029-1.02.086-2.04.151-3.058.055-.863.136-1.724.2-2.587.026-.331.039-.663.081-.992.01-.081.113-.215.17-.214a6.89,6.89,0,0,1,1.34.09C355.864,326.782,356.07,327.212,356.165,327.812Z" transform="translate(-114.451 -138.425)" fill="#fff"/>
    <path id="Path_931" data-name="Path 931" d="M314.084,327.143a2.958,2.958,0,0,1,.566.052c.862.246.957.658.913,1.482-.052.98-.182,1.956-.263,2.935a4.853,4.853,0,0,0,0,.982.835.835,0,0,0,.641.792,1,1,0,0,0,1.191-.485,4.723,4.723,0,0,0,.61-2.017c.12-1.13.191-2.264.3-3.4.012-.117.157-.307.251-.313a4.488,4.488,0,0,1,1.1.035c.757.139.937.708.906,1.5-.023.58-.086,1.158-.132,1.737-.117,1.476-.238,2.951-.348,4.427-.016.211-.088.311-.3.286a9.647,9.647,0,0,1-1.191-.147.892.892,0,0,1-.732-.737.243.243,0,0,0-.139-.172.259.259,0,0,0-.2.108,2.374,2.374,0,0,1-1.911,1.077,2.121,2.121,0,0,1-2.372-1.774,13.543,13.543,0,0,1,.01-2.335c.013-.413.077-.824.107-1.237.056-.769.095-1.539.158-2.307C313.281,327.2,313.385,327.153,314.084,327.143Z" transform="translate(-82.009 -139.017)" fill="#fff"/>
    <path id="Path_932" data-name="Path 932" d="M237,331.474a1.383,1.383,0,0,0,.732,1.375,1.508,1.508,0,0,0,1.734-.319c.368-.435.692-.434,1.134-.073a.923.923,0,0,1,.16,1.248,2.563,2.563,0,0,1-.879.675,4.492,4.492,0,0,1-3.488.011,2.87,2.87,0,0,1-1.812-2.556,5.567,5.567,0,0,1,1.031-3.929,3.669,3.669,0,0,1,2.77-1.454,4.082,4.082,0,0,1,2.057.27A2.029,2.029,0,0,1,241.5,329.2a2.537,2.537,0,0,1-2,1.806C238.7,331.219,237.861,331.317,237,331.474Zm.077-1.221a2.929,2.929,0,0,0,1.563-.328.887.887,0,0,0,.507-.939.7.7,0,0,0-.525-.649.929.929,0,0,0-1.038.38A2.781,2.781,0,0,0,237.076,330.253Z" transform="translate(-19.225 -138.444)" fill="#fff"/>
    <g id="Group_377" data-name="Group 377" transform="translate(180.261 172.453)">
      <path id="Path_933" data-name="Path 933" d="M228.3,197.159c.051-1.616.673-2.513,2.3-2.506a2.234,2.234,0,0,1,2.229-2.471l-1.168-2.78c-.886-2.107-1.789-4.208-2.645-6.327a4.578,4.578,0,0,1-.335-1.59,1.318,1.318,0,0,1,2.013-1.143,2.684,2.684,0,0,1,.9.933q4.6,8.137,9.16,16.3a7.027,7.027,0,0,1-5.113,10.4,6.862,6.862,0,0,1-6.707-2.735c-.615-.775-1.2-1.575-1.776-2.38a4.892,4.892,0,0,1-.9-3.758A2.156,2.156,0,0,1,228.3,197.159Z" transform="translate(-226.192 -178.613)" fill="#fff"/>
      <path id="Path_934" data-name="Path 934" d="M286.3,220.407l-2.352-4.368c-.277-.514-.568-1.021-.823-1.545a.961.961,0,0,1-.083-.57c.19-.932.406-1.859.62-2.787a1.866,1.866,0,0,1,2.646-1.466,6.407,6.407,0,0,1,1.086.535c.082.048.124.243.112.363-.094.913-.206,1.823-.311,2.734q-.342,2.965-.682,5.929c-.045.39-.092.779-.138,1.169Z" transform="translate(-271.726 -202.145)" fill="#fff"/>
      <path id="Path_935" data-name="Path 935" d="M291.133,184.989a2.951,2.951,0,0,1-.21.392c-.881,1.138-1.768,2.271-2.651,3.407a.461.461,0,0,1-.68.148c-.227-.149-.242-.42-.034-.689.9-1.157,1.79-2.315,2.708-3.454a.646.646,0,0,1,.525-.16C290.918,184.655,291.017,184.861,291.133,184.989Z" transform="translate(-275.237 -182.206)" fill="#fff"/>
      <path id="Path_936" data-name="Path 936" d="M280.016,177.678c-.452,0-.638-.274-.549-.634.259-1.05.524-2.1.787-3.148.087-.346.168-.693.261-1.038.086-.32.3-.469.575-.379a.433.433,0,0,1,.291.593c-.352,1.394-.687,2.793-1.053,4.183C280.281,177.438,280.09,177.582,280.016,177.678Z" transform="translate(-268.856 -172.453)" fill="#fff"/>
      <path id="Path_937" data-name="Path 937" d="M266.821,180.948a.415.415,0,0,1-.4.455.426.426,0,0,1-.48-.381c-.1-.489-.19-.98-.283-1.471-.163-.865-.33-1.729-.487-2.595a.4.4,0,0,1,.323-.51.41.41,0,0,1,.541.333c.27,1.364.528,2.731.789,4.1A.392.392,0,0,1,266.821,180.948Z" transform="translate(-257.409 -175.64)" fill="#fff"/>
    </g>
    <path id="Path_938" data-name="Path 938" d="M277.675,313.335a2.957,2.957,0,0,0-1.57-.17c-.058,0-.16.159-.167.25-.042.509-.055,1.019-.09,1.529-.037.541-.088,1.082-.133,1.623l-.2.153c-.022-.093-.014-.22-.072-.274-.216-.2-.429-.47-.689-.536a3.066,3.066,0,0,0-3.511,1.216,5.848,5.848,0,0,0-.593,5.263,2.448,2.448,0,0,0,2.292,1.683,2.2,2.2,0,0,0,2.136-1.011c.041-.063.136-.091.244-.159a.914.914,0,0,0,.748.936c.346.066.7.069,1.057.1.293.029.409-.138.429-.4.124-1.642.241-3.285.367-4.927.06-.779.147-1.557.2-2.336.047-.711.081-1.424.085-2.137A.9.9,0,0,0,277.675,313.335Zm-2.249,7.726a1.419,1.419,0,0,1-1.314,1.118.976.976,0,0,1-.719-.242c-.01-.012-.088-.105-.136-.17-.009-.015-.019-.029-.027-.045a4.118,4.118,0,0,1-.194-.59c-.021-.09-.041-.181-.06-.273a4.324,4.324,0,0,1-.063-1.234,9.515,9.515,0,0,1,.267-1.055c.034-.084.063-.163.088-.235a1.173,1.173,0,0,1,1.285-.666,1.1,1.1,0,0,1,.976,1.027A5.018,5.018,0,0,1,275.426,321.061Z" transform="translate(-47.849 -127.8)" fill="#fff"/>
  </g>
</svg>
